<?xml version="1.0" encoding="utf-8" standalone="no"?>
<!DOCTYPE svg PUBLIC "-//W3C//DTD SVG 1.1//EN"
  "http://www.w3.org/Graphics/SVG/1.1/DTD/svg11.dtd">
<svg xmlns:xlink="http://www.w3.org/1999/xlink" width="953.449221pt" height="255.450279pt" viewBox="0 0 953.449221 255.450279" xmlns="http://www.w3.org/2000/svg" version="1.1">
 <metadata>
  <rdf:RDF xmlns:dc="http://purl.org/dc/elements/1.1/" xmlns:cc="http://creativecommons.org/ns#" xmlns:rdf="http://www.w3.org/1999/02/22-rdf-syntax-ns#">
   <cc:Work>
    <dc:type rdf:resource="http://purl.org/dc/dcmitype/StillImage"/>
    <dc:date>2023-08-18T12:04:52.474095</dc:date>
    <dc:format>image/svg+xml</dc:format>
    <dc:creator>
     <cc:Agent>
      <dc:title>Matplotlib v3.7.1, https://matplotlib.org/</dc:title>
     </cc:Agent>
    </dc:creator>
   </cc:Work>
  </rdf:RDF>
 </metadata>
 <defs>
  <style type="text/css">*{stroke-linejoin: round; stroke-linecap: butt}</style>
 </defs>
 <g id="figure_1">
  <g id="patch_1">
   <path d="M 0 255.450279 
L 953.449221 255.450279 
L 953.449221 -0 
L 0 -0 
z
" style="fill: #ffffff"/>
  </g>
  <g id="axes_1">
   <g id="patch_2">
    <path d="M 109.249221 177.029603 
L 946.249221 177.029603 
L 946.249221 10.709603 
L 109.249221 10.709603 
z
" style="fill: #ffffff"/>
   </g>
   <g id="matplotlib.axis_1">
    <g id="xtick_1">
     <g id="line2d_1">
      <defs>
       <path id="m0fc0eaace1" d="M 0 0 
L 0 3.5 
" style="stroke: #000000; stroke-width: 0.8"/>
      </defs>
      <g>
       <use xlink:href="#m0fc0eaace1" x="147.293407" y="177.029603" style="stroke: #000000; stroke-width: 0.8"/>
      </g>
     </g>
     <g id="text_1">
      <!-- $\mathdefault{0.0}$ -->
      <g transform="translate(128.336906 206.16881) scale(0.32 -0.32)">
       <defs>
        <path id="CMR17-30" d="M 2688 2038 
C 2688 2430 2682 3099 2413 3613 
C 2176 4063 1798 4224 1466 4224 
C 1158 4224 768 4082 525 3620 
C 269 3137 243 2539 243 2038 
C 243 1671 250 1112 448 623 
C 723 -39 1216 -128 1466 -128 
C 1760 -128 2208 -7 2470 604 
C 2662 1048 2688 1568 2688 2038 
z
M 1466 -26 
C 1056 -26 813 328 723 816 
C 653 1196 653 1749 653 2109 
C 653 2604 653 3015 736 3407 
C 858 3954 1216 4121 1466 4121 
C 1728 4121 2067 3947 2189 3420 
C 2272 3054 2278 2623 2278 2109 
C 2278 1691 2278 1176 2202 797 
C 2067 96 1690 -26 1466 -26 
z
" transform="scale(0.015625)"/>
        <path id="CMMI12-3a" d="M 1178 307 
C 1178 492 1024 620 870 620 
C 685 620 557 467 557 313 
C 557 128 710 0 864 0 
C 1050 0 1178 153 1178 307 
z
" transform="scale(0.015625)"/>
       </defs>
       <use xlink:href="#CMR17-30" transform="scale(0.996264)"/>
       <use xlink:href="#CMMI12-3a" transform="translate(45.690477 0) scale(0.996264)"/>
       <use xlink:href="#CMR17-30" transform="translate(72.787654 0) scale(0.996264)"/>
      </g>
     </g>
    </g>
    <g id="xtick_2">
     <g id="line2d_2">
      <g>
       <use xlink:href="#m0fc0eaace1" x="299.475225" y="177.029603" style="stroke: #000000; stroke-width: 0.8"/>
      </g>
     </g>
     <g id="text_2">
      <!-- $\mathdefault{0.2}$ -->
      <g transform="translate(280.518724 206.16881) scale(0.32 -0.32)">
       <defs>
        <path id="CMR17-32" d="M 2669 990 
L 2554 990 
C 2490 537 2438 460 2413 422 
C 2381 371 1920 371 1830 371 
L 602 371 
C 832 620 1280 1073 1824 1596 
C 2214 1966 2669 2400 2669 3033 
C 2669 3788 2067 4224 1395 4224 
C 691 4224 262 3603 262 3027 
C 262 2777 448 2745 525 2745 
C 589 2745 781 2783 781 3007 
C 781 3206 614 3264 525 3264 
C 486 3264 448 3257 422 3244 
C 544 3788 915 4057 1306 4057 
C 1862 4057 2227 3616 2227 3033 
C 2227 2477 1901 1998 1536 1583 
L 262 147 
L 262 0 
L 2515 0 
L 2669 990 
z
" transform="scale(0.015625)"/>
       </defs>
       <use xlink:href="#CMR17-30" transform="scale(0.996264)"/>
       <use xlink:href="#CMMI12-3a" transform="translate(45.690477 0) scale(0.996264)"/>
       <use xlink:href="#CMR17-32" transform="translate(72.787654 0) scale(0.996264)"/>
      </g>
     </g>
    </g>
    <g id="xtick_3">
     <g id="line2d_3">
      <g>
       <use xlink:href="#m0fc0eaace1" x="451.657044" y="177.029603" style="stroke: #000000; stroke-width: 0.8"/>
      </g>
     </g>
     <g id="text_3">
      <!-- $\mathdefault{0.4}$ -->
      <g transform="translate(432.700543 206.16881) scale(0.32 -0.32)">
       <defs>
        <path id="CMR17-34" d="M 2150 4147 
C 2150 4281 2144 4288 2029 4288 
L 128 1254 
L 128 1088 
L 1779 1088 
L 1779 460 
C 1779 230 1766 166 1318 166 
L 1197 166 
L 1197 0 
C 1402 12 1747 12 1965 12 
C 2182 12 2528 12 2733 0 
L 2733 166 
L 2611 166 
C 2163 166 2150 230 2150 460 
L 2150 1088 
L 2803 1088 
L 2803 1254 
L 2150 1254 
L 2150 4147 
z
M 1798 3723 
L 1798 1254 
L 256 1254 
L 1798 3723 
z
" transform="scale(0.015625)"/>
       </defs>
       <use xlink:href="#CMR17-30" transform="scale(0.996264)"/>
       <use xlink:href="#CMMI12-3a" transform="translate(45.690477 0) scale(0.996264)"/>
       <use xlink:href="#CMR17-34" transform="translate(72.787654 0) scale(0.996264)"/>
      </g>
     </g>
    </g>
    <g id="xtick_4">
     <g id="line2d_4">
      <g>
       <use xlink:href="#m0fc0eaace1" x="603.838862" y="177.029603" style="stroke: #000000; stroke-width: 0.8"/>
      </g>
     </g>
     <g id="text_4">
      <!-- $\mathdefault{0.6}$ -->
      <g transform="translate(584.882361 206.16881) scale(0.32 -0.32)">
       <defs>
        <path id="CMR17-36" d="M 678 2198 
C 678 3712 1395 4076 1811 4076 
C 1946 4076 2272 4049 2400 3782 
C 2298 3782 2106 3782 2106 3558 
C 2106 3385 2246 3328 2336 3328 
C 2394 3328 2566 3353 2566 3571 
C 2566 3987 2246 4224 1805 4224 
C 1043 4224 243 3411 243 2011 
C 243 257 966 -128 1478 -128 
C 2099 -128 2688 431 2688 1295 
C 2688 2101 2170 2688 1517 2688 
C 1126 2688 838 2430 678 1979 
L 678 2198 
z
M 1478 25 
C 691 25 691 1212 691 1450 
C 691 1914 909 2585 1504 2585 
C 1613 2585 1926 2585 2138 2140 
C 2253 1889 2253 1624 2253 1302 
C 2253 954 2253 696 2118 438 
C 1978 173 1773 25 1478 25 
z
" transform="scale(0.015625)"/>
       </defs>
       <use xlink:href="#CMR17-30" transform="scale(0.996264)"/>
       <use xlink:href="#CMMI12-3a" transform="translate(45.690477 0) scale(0.996264)"/>
       <use xlink:href="#CMR17-36" transform="translate(72.787654 0) scale(0.996264)"/>
      </g>
     </g>
    </g>
    <g id="xtick_5">
     <g id="line2d_5">
      <g>
       <use xlink:href="#m0fc0eaace1" x="756.02068" y="177.029603" style="stroke: #000000; stroke-width: 0.8"/>
      </g>
     </g>
     <g id="text_5">
      <!-- $\mathdefault{0.8}$ -->
      <g transform="translate(737.064179 206.16881) scale(0.32 -0.32)">
       <defs>
        <path id="CMR17-38" d="M 1741 2289 
C 2144 2494 2554 2803 2554 3298 
C 2554 3884 1990 4224 1472 4224 
C 890 4224 378 3800 378 3215 
C 378 3054 416 2777 666 2533 
C 730 2469 998 2276 1171 2154 
C 883 2006 211 1652 211 945 
C 211 282 838 -128 1459 -128 
C 2144 -128 2720 366 2720 1022 
C 2720 1607 2330 1877 2074 2051 
L 1741 2289 
z
M 902 2855 
C 851 2887 595 3086 595 3388 
C 595 3781 998 4076 1459 4076 
C 1965 4076 2336 3716 2336 3298 
C 2336 2700 1670 2359 1638 2359 
C 1632 2359 1626 2359 1574 2398 
L 902 2855 
z
M 2080 1536 
C 2176 1466 2483 1253 2483 861 
C 2483 385 2010 25 1472 25 
C 890 25 448 443 448 951 
C 448 1459 838 1884 1280 2083 
L 2080 1536 
z
" transform="scale(0.015625)"/>
       </defs>
       <use xlink:href="#CMR17-30" transform="scale(0.996264)"/>
       <use xlink:href="#CMMI12-3a" transform="translate(45.690477 0) scale(0.996264)"/>
       <use xlink:href="#CMR17-38" transform="translate(72.787654 0) scale(0.996264)"/>
      </g>
     </g>
    </g>
    <g id="xtick_6">
     <g id="line2d_6">
      <g>
       <use xlink:href="#m0fc0eaace1" x="908.202498" y="177.029603" style="stroke: #000000; stroke-width: 0.8"/>
      </g>
     </g>
     <g id="text_6">
      <!-- $\mathdefault{1.0}$ -->
      <g transform="translate(889.245997 206.16881) scale(0.32 -0.32)">
       <defs>
        <path id="CMR17-31" d="M 1702 4083 
C 1702 4217 1696 4224 1606 4224 
C 1357 3927 979 3833 621 3820 
C 602 3820 570 3820 563 3808 
C 557 3795 557 3782 557 3648 
C 755 3648 1088 3686 1344 3839 
L 1344 467 
C 1344 243 1331 166 781 166 
L 589 166 
L 589 0 
C 896 6 1216 12 1523 12 
C 1830 12 2150 6 2458 0 
L 2458 166 
L 2266 166 
C 1715 166 1702 236 1702 467 
L 1702 4083 
z
" transform="scale(0.015625)"/>
       </defs>
       <use xlink:href="#CMR17-31" transform="scale(0.996264)"/>
       <use xlink:href="#CMMI12-3a" transform="translate(45.690477 0) scale(0.996264)"/>
       <use xlink:href="#CMR17-30" transform="translate(72.787654 0) scale(0.996264)"/>
      </g>
     </g>
    </g>
    <g id="text_7">
     <!-- $t/\tau$ -->
     <g transform="translate(507.530805 240.280167) scale(0.32 -0.32)">
      <defs>
       <path id="CMMI12-74" d="M 1286 2566 
L 1875 2566 
C 1997 2566 2061 2566 2061 2681 
C 2061 2752 2022 2752 1894 2752 
L 1331 2752 
L 1568 3664 
C 1594 3752 1594 3764 1594 3808 
C 1594 3910 1510 3968 1427 3968 
C 1376 3968 1229 3948 1178 3746 
L 928 2752 
L 326 2752 
C 198 2752 141 2752 141 2630 
C 141 2566 186 2566 307 2566 
L 877 2566 
L 454 881 
C 403 657 384 593 384 510 
C 384 210 595 -64 954 -64 
C 1600 -64 1946 868 1946 913 
C 1946 951 1920 970 1882 970 
C 1869 970 1843 970 1830 944 
C 1824 938 1818 932 1773 830 
C 1638 510 1344 64 973 64 
C 781 64 768 223 768 364 
C 768 370 768 491 787 568 
L 1286 2566 
z
" transform="scale(0.015625)"/>
       <path id="CMMI12-3d" d="M 2746 4563 
C 2746 4569 2784 4665 2784 4678 
C 2784 4755 2720 4800 2669 4800 
C 2637 4800 2579 4800 2528 4659 
L 384 -1364 
C 384 -1370 346 -1466 346 -1479 
C 346 -1556 410 -1600 461 -1600 
C 499 -1600 557 -1594 602 -1460 
L 2746 4563 
z
" transform="scale(0.015625)"/>
       <path id="CMMI12-1c" d="M 1837 2406 
L 2899 2406 
C 2982 2406 3194 2406 3194 2611 
C 3194 2752 3072 2752 2957 2752 
L 1197 2752 
C 1050 2752 832 2752 538 2438 
C 371 2253 166 1916 166 1878 
C 166 1839 198 1827 237 1827 
C 282 1827 288 1846 320 1884 
C 653 2406 986 2406 1146 2406 
L 1677 2406 
L 1011 223 
C 979 127 979 114 979 95 
C 979 25 1024 -64 1152 -64 
C 1350 -64 1382 108 1402 204 
L 1837 2406 
z
" transform="scale(0.015625)"/>
      </defs>
      <use xlink:href="#CMMI12-74" transform="scale(0.996264)"/>
      <use xlink:href="#CMMI12-3d" transform="translate(35.22633 0) scale(0.996264)"/>
      <use xlink:href="#CMMI12-1c" transform="translate(84.001249 0) scale(0.996264)"/>
     </g>
    </g>
   </g>
   <g id="matplotlib.axis_2">
    <g id="ytick_1">
     <g id="line2d_7">
      <defs>
       <path id="m9c90360258" d="M 0 0 
L -3.5 0 
" style="stroke: #000000; stroke-width: 0.8"/>
      </defs>
      <g>
       <use xlink:href="#m9c90360258" x="109.249221" y="112.347998" style="stroke: #000000; stroke-width: 0.8"/>
      </g>
     </g>
     <g id="text_8">
      <!-- $\mathdefault{−2.5}$ -->
      <g transform="translate(39.540227 123.417602) scale(0.32 -0.32)">
       <defs>
        <path id="CMSY10-0" d="M 4218 1472 
C 4326 1472 4442 1472 4442 1600 
C 4442 1728 4326 1728 4218 1728 
L 755 1728 
C 646 1728 531 1728 531 1600 
C 531 1472 646 1472 755 1472 
L 4218 1472 
z
" transform="scale(0.015625)"/>
        <path id="CMR17-35" d="M 730 3750 
C 794 3724 1056 3641 1325 3641 
C 1920 3641 2246 3961 2432 4140 
C 2432 4191 2432 4224 2394 4224 
C 2387 4224 2374 4224 2323 4198 
C 2099 4102 1837 4032 1517 4032 
C 1325 4032 1037 4055 723 4191 
C 653 4224 640 4224 634 4224 
C 602 4224 595 4217 595 4090 
L 595 2231 
C 595 2113 595 2080 659 2080 
C 691 2080 704 2093 736 2139 
C 941 2435 1222 2560 1542 2560 
C 1766 2560 2246 2415 2246 1293 
C 2246 1087 2246 716 2054 422 
C 1894 159 1645 25 1370 25 
C 947 25 518 319 403 812 
C 429 806 480 793 506 793 
C 589 793 749 838 749 1036 
C 749 1209 627 1280 506 1280 
C 358 1280 262 1190 262 1011 
C 262 454 704 -128 1382 -128 
C 2042 -128 2669 441 2669 1267 
C 2669 2054 2170 2662 1549 2662 
C 1222 2662 947 2540 730 2304 
L 730 3750 
z
" transform="scale(0.015625)"/>
       </defs>
       <use xlink:href="#CMSY10-0" transform="scale(0.996264)"/>
       <use xlink:href="#CMR17-32" transform="translate(77.487468 0) scale(0.996264)"/>
       <use xlink:href="#CMMI12-3a" transform="translate(123.177945 0) scale(0.996264)"/>
       <use xlink:href="#CMR17-35" transform="translate(150.275122 0) scale(0.996264)"/>
      </g>
     </g>
    </g>
    <g id="ytick_2">
     <g id="line2d_8">
      <g>
       <use xlink:href="#m9c90360258" x="109.249221" y="18.269603" style="stroke: #000000; stroke-width: 0.8"/>
      </g>
     </g>
     <g id="text_9">
      <!-- $\mathdefault{0.0}$ -->
      <g transform="translate(64.336219 29.339207) scale(0.32 -0.32)">
       <use xlink:href="#CMR17-30" transform="scale(0.996264)"/>
       <use xlink:href="#CMMI12-3a" transform="translate(45.690477 0) scale(0.996264)"/>
       <use xlink:href="#CMR17-30" transform="translate(72.787654 0) scale(0.996264)"/>
      </g>
     </g>
    </g>
    <g id="text_10">
     <!-- $\Delta \mathcal{N}$ -->
     <g transform="translate(29.339207 119.255546) rotate(-90) scale(0.32 -0.32)">
      <defs>
       <path id="CMR17-1" d="M 2598 4435 
C 2547 4544 2522 4544 2470 4544 
C 2394 4544 2387 4531 2342 4441 
L 269 108 
C 262 96 237 38 237 32 
C 237 6 243 0 358 0 
L 4576 0 
C 4691 0 4698 6 4698 32 
C 4698 38 4672 96 4666 108 
L 2598 4435 
z
M 2310 4056 
L 4083 358 
L 531 358 
L 2310 4056 
z
" transform="scale(0.015625)"/>
       <path id="CMSY10-4e" d="M 1958 3657 
C 2074 3326 2214 2848 2502 2065 
C 2906 982 3085 587 3475 -20 
C 3565 -154 3571 -160 3629 -160 
C 3718 -160 3853 -84 3923 -32 
C 4013 51 4019 57 4090 370 
C 4474 2046 4960 3791 5088 4084 
C 5094 4097 5222 4339 6010 4352 
C 6138 4358 6259 4697 6259 4838 
C 6259 4940 6221 4940 6131 4940 
C 5491 4940 5203 4672 5126 4588 
C 4947 4358 4794 3893 4499 2829 
C 4275 2014 4070 1186 3872 364 
C 3520 893 3322 1396 3014 2218 
C 2675 3122 2470 3785 2298 4358 
C 2259 4486 2253 4492 2195 4492 
C 2182 4492 2054 4492 1869 4339 
C 1805 4282 1798 4224 1792 4154 
C 1613 2460 1011 784 838 479 
C 787 383 710 268 582 268 
C 518 268 269 300 102 453 
C 70 479 58 479 51 479 
C -51 479 -186 160 -186 6 
C -186 -192 205 -320 384 -320 
C 794 -320 1120 580 1222 873 
C 1638 2026 1837 2976 1958 3657 
z
" transform="scale(0.015625)"/>
      </defs>
      <use xlink:href="#CMR17-1" transform="scale(0.996264)"/>
      <use xlink:href="#CMSY10-4e" transform="translate(76.91959 0) scale(0.996264)"/>
     </g>
    </g>
   </g>
   <g id="line2d_9">
    <path d="M 147.294675 18.269603 
L 159.976494 18.292806 
L 172.658312 18.365922 
L 185.34013 18.494112 
L 198.021948 18.682367 
L 210.703766 18.935496 
L 223.385585 19.258097 
L 236.067403 19.654548 
L 248.749221 20.128989 
L 261.431039 20.685304 
L 274.112857 21.327114 
L 286.794675 22.057759 
L 299.476494 22.880295 
L 312.158312 23.79748 
L 324.84013 24.811774 
L 337.521948 25.925328 
L 350.203766 27.139989 
L 362.885585 28.457294 
L 375.567403 29.878476 
L 388.249221 31.404464 
L 400.931039 33.035888 
L 413.612857 34.773091 
L 426.294675 36.61613 
L 438.976494 38.564793 
L 451.658312 40.618608 
L 464.34013 42.776854 
L 477.021948 45.038578 
L 489.703766 47.402608 
L 502.385585 49.867574 
L 515.067403 52.431917 
L 527.749221 55.093914 
L 540.431039 57.851692 
L 553.112857 60.703246 
L 565.794675 63.64646 
L 578.476494 66.679123 
L 591.158312 69.798947 
L 603.84013 73.003586 
L 616.521948 76.290651 
L 629.203766 79.657728 
L 641.885585 83.102391 
L 654.567403 86.62222 
L 667.249221 90.214811 
L 679.931039 93.877786 
L 692.612857 97.60881 
L 705.294675 101.405593 
L 717.976494 105.265903 
L 730.658312 109.187567 
L 743.34013 113.16848 
L 756.021948 117.206604 
L 768.703766 121.29997 
L 781.385585 125.446679 
L 794.067403 129.644897 
L 806.749221 133.892853 
L 819.431039 138.188833 
L 832.112857 142.531172 
L 844.794675 146.91825 
L 857.476494 151.348476 
L 870.158312 155.820283 
L 882.84013 160.332115 
L 895.521948 164.882413 
L 908.203766 169.469603 
" clip-path="url(#p4eb05b7d1b)" style="fill: none; stroke-dasharray: 5.55,2.4; stroke-dashoffset: 0; stroke: #0000ff; stroke-width: 1.5"/>
   </g>
   <g id="line2d_10">
    <path d="M 147.294675 18.269603 
L 159.976494 18.291858 
L 172.658312 18.35835 
L 185.34013 18.468607 
L 198.021948 18.622053 
L 210.703766 18.818016 
L 223.385585 19.055723 
L 236.067403 19.334307 
L 248.749221 19.652809 
L 261.431039 20.010178 
L 274.112857 20.405278 
L 286.794675 20.836886 
L 299.476494 21.3037 
L 312.158312 21.804338 
L 324.84013 22.337346 
L 337.521948 22.901196 
L 350.203766 23.494297 
L 362.885585 24.11499 
L 375.567403 24.761559 
L 388.249221 25.432231 
L 400.931039 26.125182 
L 413.612857 26.83854 
L 426.294675 27.570389 
L 438.976494 28.318775 
L 451.658312 29.081708 
L 464.34013 29.857167 
L 477.021948 30.643104 
L 489.703766 31.437452 
L 502.385585 32.238121 
L 515.067403 33.043014 
L 527.749221 33.850019 
L 540.431039 34.657025 
L 553.112857 35.461916 
L 565.794675 36.262585 
L 578.476494 37.056931 
L 591.158312 37.842866 
L 603.84013 38.618323 
L 616.521948 39.381253 
L 629.203766 40.129636 
L 641.885585 40.861482 
L 654.567403 41.574836 
L 667.249221 42.267782 
L 679.931039 42.93845 
L 692.612857 43.585014 
L 705.294675 44.205702 
L 717.976494 44.798796 
L 730.658312 45.362641 
L 743.34013 45.895643 
L 756.021948 46.396274 
L 768.703766 46.863081 
L 781.385585 47.294682 
L 794.067403 47.689774 
L 806.749221 48.047136 
L 819.431039 48.36563 
L 832.112857 48.644206 
L 844.794675 48.881905 
L 857.476494 49.077859 
L 870.158312 49.231297 
L 882.84013 49.341545 
L 895.521948 49.408028 
L 908.203766 49.430274 
" clip-path="url(#p4eb05b7d1b)" style="fill: none; stroke: #ff0000; stroke-width: 1.5; stroke-linecap: square"/>
   </g>
   <g id="line2d_11">
    <path d="M 147.294675 18.269603 
L 159.976494 18.291897 
L 172.658312 18.358661 
L 185.34013 18.469653 
L 198.021948 18.624528 
L 210.703766 18.822837 
L 223.385585 19.064028 
L 236.067403 19.347449 
L 248.749221 19.672351 
L 261.431039 20.037885 
L 274.112857 20.443109 
L 286.794675 20.88699 
L 299.476494 21.368402 
L 312.158312 21.886135 
L 324.84013 22.438895 
L 337.521948 23.025305 
L 350.203766 23.643914 
L 362.885585 24.293196 
L 375.567403 24.971554 
L 388.249221 25.677328 
L 400.931039 26.408793 
L 413.612857 27.164169 
L 426.294675 27.941621 
L 438.976494 28.739266 
L 451.658312 29.555175 
L 464.34013 30.387383 
L 477.021948 31.233886 
L 489.703766 32.092652 
L 502.385585 32.961623 
L 515.067403 33.838722 
L 527.749221 34.721855 
L 540.431039 35.608919 
L 553.112857 36.497805 
L 565.794675 37.386402 
L 578.476494 38.272607 
L 591.158312 39.154324 
L 603.84013 40.029473 
L 616.521948 40.895991 
L 629.203766 41.751844 
L 641.885585 42.595022 
L 654.567403 43.423552 
L 667.249221 44.235499 
L 679.931039 45.028968 
L 692.612857 45.802117 
L 705.294675 46.553149 
L 717.976494 47.280329 
L 730.658312 47.981976 
L 743.34013 48.656478 
L 756.021948 49.302286 
L 768.703766 49.917925 
L 781.385585 50.501991 
L 794.067403 51.053161 
L 806.749221 51.570191 
L 819.431039 52.051918 
L 832.112857 52.497269 
L 844.794675 52.905255 
L 857.476494 53.274981 
L 870.158312 53.605642 
L 882.84013 53.896528 
L 895.521948 54.147024 
L 908.203766 54.356613 
" clip-path="url(#p4eb05b7d1b)" style="fill: none; stroke: #000000; stroke-width: 1.5; stroke-linecap: square"/>
    <defs>
     <path id="m727d7e6ba8" d="M 0 0 
L 0 10 
M 0 0 
L 8 -5 
M 0 0 
L -8 -5 
" style="stroke: #000000"/>
    </defs>
    <g clip-path="url(#p4eb05b7d1b)">
     <use xlink:href="#m727d7e6ba8" x="147.294675" y="18.269603" style="stroke: #000000"/>
     <use xlink:href="#m727d7e6ba8" x="159.976494" y="18.291897" style="stroke: #000000"/>
     <use xlink:href="#m727d7e6ba8" x="172.658312" y="18.358661" style="stroke: #000000"/>
     <use xlink:href="#m727d7e6ba8" x="185.34013" y="18.469653" style="stroke: #000000"/>
     <use xlink:href="#m727d7e6ba8" x="198.021948" y="18.624528" style="stroke: #000000"/>
     <use xlink:href="#m727d7e6ba8" x="210.703766" y="18.822837" style="stroke: #000000"/>
     <use xlink:href="#m727d7e6ba8" x="223.385585" y="19.064028" style="stroke: #000000"/>
     <use xlink:href="#m727d7e6ba8" x="236.067403" y="19.347449" style="stroke: #000000"/>
     <use xlink:href="#m727d7e6ba8" x="248.749221" y="19.672351" style="stroke: #000000"/>
     <use xlink:href="#m727d7e6ba8" x="261.431039" y="20.037885" style="stroke: #000000"/>
     <use xlink:href="#m727d7e6ba8" x="274.112857" y="20.443109" style="stroke: #000000"/>
     <use xlink:href="#m727d7e6ba8" x="286.794675" y="20.88699" style="stroke: #000000"/>
     <use xlink:href="#m727d7e6ba8" x="299.476494" y="21.368402" style="stroke: #000000"/>
     <use xlink:href="#m727d7e6ba8" x="312.158312" y="21.886135" style="stroke: #000000"/>
     <use xlink:href="#m727d7e6ba8" x="324.84013" y="22.438895" style="stroke: #000000"/>
     <use xlink:href="#m727d7e6ba8" x="337.521948" y="23.025305" style="stroke: #000000"/>
     <use xlink:href="#m727d7e6ba8" x="350.203766" y="23.643914" style="stroke: #000000"/>
     <use xlink:href="#m727d7e6ba8" x="362.885585" y="24.293196" style="stroke: #000000"/>
     <use xlink:href="#m727d7e6ba8" x="375.567403" y="24.971554" style="stroke: #000000"/>
     <use xlink:href="#m727d7e6ba8" x="388.249221" y="25.677328" style="stroke: #000000"/>
     <use xlink:href="#m727d7e6ba8" x="400.931039" y="26.408793" style="stroke: #000000"/>
     <use xlink:href="#m727d7e6ba8" x="413.612857" y="27.164169" style="stroke: #000000"/>
     <use xlink:href="#m727d7e6ba8" x="426.294675" y="27.941621" style="stroke: #000000"/>
     <use xlink:href="#m727d7e6ba8" x="438.976494" y="28.739266" style="stroke: #000000"/>
     <use xlink:href="#m727d7e6ba8" x="451.658312" y="29.555175" style="stroke: #000000"/>
     <use xlink:href="#m727d7e6ba8" x="464.34013" y="30.387383" style="stroke: #000000"/>
     <use xlink:href="#m727d7e6ba8" x="477.021948" y="31.233886" style="stroke: #000000"/>
     <use xlink:href="#m727d7e6ba8" x="489.703766" y="32.092652" style="stroke: #000000"/>
     <use xlink:href="#m727d7e6ba8" x="502.385585" y="32.961623" style="stroke: #000000"/>
     <use xlink:href="#m727d7e6ba8" x="515.067403" y="33.838722" style="stroke: #000000"/>
     <use xlink:href="#m727d7e6ba8" x="527.749221" y="34.721855" style="stroke: #000000"/>
     <use xlink:href="#m727d7e6ba8" x="540.431039" y="35.608919" style="stroke: #000000"/>
     <use xlink:href="#m727d7e6ba8" x="553.112857" y="36.497805" style="stroke: #000000"/>
     <use xlink:href="#m727d7e6ba8" x="565.794675" y="37.386402" style="stroke: #000000"/>
     <use xlink:href="#m727d7e6ba8" x="578.476494" y="38.272607" style="stroke: #000000"/>
     <use xlink:href="#m727d7e6ba8" x="591.158312" y="39.154324" style="stroke: #000000"/>
     <use xlink:href="#m727d7e6ba8" x="603.84013" y="40.029473" style="stroke: #000000"/>
     <use xlink:href="#m727d7e6ba8" x="616.521948" y="40.895991" style="stroke: #000000"/>
     <use xlink:href="#m727d7e6ba8" x="629.203766" y="41.751844" style="stroke: #000000"/>
     <use xlink:href="#m727d7e6ba8" x="641.885585" y="42.595022" style="stroke: #000000"/>
     <use xlink:href="#m727d7e6ba8" x="654.567403" y="43.423552" style="stroke: #000000"/>
     <use xlink:href="#m727d7e6ba8" x="667.249221" y="44.235499" style="stroke: #000000"/>
     <use xlink:href="#m727d7e6ba8" x="679.931039" y="45.028968" style="stroke: #000000"/>
     <use xlink:href="#m727d7e6ba8" x="692.612857" y="45.802117" style="stroke: #000000"/>
     <use xlink:href="#m727d7e6ba8" x="705.294675" y="46.553149" style="stroke: #000000"/>
     <use xlink:href="#m727d7e6ba8" x="717.976494" y="47.280329" style="stroke: #000000"/>
     <use xlink:href="#m727d7e6ba8" x="730.658312" y="47.981976" style="stroke: #000000"/>
     <use xlink:href="#m727d7e6ba8" x="743.34013" y="48.656478" style="stroke: #000000"/>
     <use xlink:href="#m727d7e6ba8" x="756.021948" y="49.302286" style="stroke: #000000"/>
     <use xlink:href="#m727d7e6ba8" x="768.703766" y="49.917925" style="stroke: #000000"/>
     <use xlink:href="#m727d7e6ba8" x="781.385585" y="50.501991" style="stroke: #000000"/>
     <use xlink:href="#m727d7e6ba8" x="794.067403" y="51.053161" style="stroke: #000000"/>
     <use xlink:href="#m727d7e6ba8" x="806.749221" y="51.570191" style="stroke: #000000"/>
     <use xlink:href="#m727d7e6ba8" x="819.431039" y="52.051918" style="stroke: #000000"/>
     <use xlink:href="#m727d7e6ba8" x="832.112857" y="52.497269" style="stroke: #000000"/>
     <use xlink:href="#m727d7e6ba8" x="844.794675" y="52.905255" style="stroke: #000000"/>
     <use xlink:href="#m727d7e6ba8" x="857.476494" y="53.274981" style="stroke: #000000"/>
     <use xlink:href="#m727d7e6ba8" x="870.158312" y="53.605642" style="stroke: #000000"/>
     <use xlink:href="#m727d7e6ba8" x="882.84013" y="53.896528" style="stroke: #000000"/>
     <use xlink:href="#m727d7e6ba8" x="895.521948" y="54.147024" style="stroke: #000000"/>
     <use xlink:href="#m727d7e6ba8" x="908.203766" y="54.356613" style="stroke: #000000"/>
    </g>
   </g>
   <g id="line2d_12">
    <path d="M 109.249221 18.269603 
L 946.249221 18.269603 
" clip-path="url(#p4eb05b7d1b)" style="fill: none; stroke: #808080; stroke-width: 1.5; stroke-linecap: square"/>
   </g>
   <g id="line2d_13">
    <path d="M 109.249221 55.900961 
L 946.249221 55.900961 
" clip-path="url(#p4eb05b7d1b)" style="fill: none; stroke: #808080; stroke-width: 1.5; stroke-linecap: square"/>
   </g>
   <g id="patch_3">
    <path d="M 109.249221 177.029603 
L 109.249221 10.709603 
" style="fill: none; stroke: #000000; stroke-width: 0.8; stroke-linejoin: miter; stroke-linecap: square"/>
   </g>
   <g id="patch_4">
    <path d="M 946.249221 177.029603 
L 946.249221 10.709603 
" style="fill: none; stroke: #000000; stroke-width: 0.8; stroke-linejoin: miter; stroke-linecap: square"/>
   </g>
   <g id="patch_5">
    <path d="M 109.249221 177.029603 
L 946.249221 177.029603 
" style="fill: none; stroke: #000000; stroke-width: 0.8; stroke-linejoin: miter; stroke-linecap: square"/>
   </g>
   <g id="patch_6">
    <path d="M 109.249221 10.709603 
L 946.249221 10.709603 
" style="fill: none; stroke: #000000; stroke-width: 0.8; stroke-linejoin: miter; stroke-linecap: square"/>
   </g>
   <g id="text_11">
    <!-- $\theta/\pi = 0.93$ -->
    <g transform="translate(151.099221 93.869603) scale(0.32 -0.32)">
     <defs>
      <path id="CMMI12-12" d="M 2835 3200 
C 2835 3849 2630 4480 2106 4480 
C 1210 4480 256 2615 256 1215 
C 256 922 320 -64 992 -64 
C 1862 -64 2835 1755 2835 3200 
z
M 896 2304 
C 992 2679 1126 3213 1382 3665 
C 1594 4046 1818 4351 2099 4351 
C 2310 4351 2451 4173 2451 3563 
C 2451 3334 2432 3016 2246 2304 
L 896 2304 
z
M 2202 2112 
C 2042 1488 1907 1088 1677 687 
C 1491 362 1267 64 998 64 
C 800 64 640 216 640 846 
C 640 1259 742 1692 845 2112 
L 2202 2112 
z
" transform="scale(0.015625)"/>
      <path id="CMMI12-19" d="M 1658 2406 
L 2381 2406 
C 2208 1691 2099 1225 2099 715 
C 2099 625 2099 -64 2362 -64 
C 2496 -64 2611 57 2611 166 
C 2611 198 2611 210 2566 306 
C 2394 746 2394 1295 2394 1340 
C 2394 1378 2394 1832 2528 2406 
L 3245 2406 
C 3328 2406 3539 2406 3539 2611 
C 3539 2752 3418 2752 3302 2752 
L 1197 2752 
C 1050 2752 832 2752 538 2438 
C 371 2253 166 1915 166 1876 
C 166 1838 198 1825 237 1825 
C 282 1825 288 1844 320 1883 
C 653 2406 986 2406 1146 2406 
L 1510 2406 
C 1370 1927 1210 1372 685 255 
C 634 153 634 140 634 102 
C 634 -32 749 -64 806 -64 
C 992 -64 1043 102 1120 370 
C 1222 695 1222 708 1286 964 
L 1658 2406 
z
" transform="scale(0.015625)"/>
      <path id="CMR17-3d" d="M 4115 2048 
C 4211 2048 4307 2048 4307 2156 
C 4307 2272 4198 2272 4090 2272 
L 512 2272 
C 403 2272 294 2272 294 2156 
C 294 2048 390 2048 486 2048 
L 4115 2048 
z
M 4090 927 
C 4198 927 4307 927 4307 1043 
C 4307 1152 4211 1152 4115 1152 
L 486 1152 
C 390 1152 294 1152 294 1043 
C 294 927 403 927 512 927 
L 4090 927 
z
" transform="scale(0.015625)"/>
      <path id="CMR17-39" d="M 2253 1871 
C 2253 448 1670 25 1190 25 
C 1043 25 685 43 538 281 
C 704 256 826 345 826 505 
C 826 678 685 736 595 736 
C 538 736 365 710 365 492 
C 365 68 742 -128 1203 -128 
C 1939 -128 2688 665 2688 2090 
C 2688 3857 1971 4224 1485 4224 
C 851 4224 243 3664 243 2800 
C 243 2000 762 1408 1414 1408 
C 1952 1408 2189 1910 2253 2122 
L 2253 1871 
z
M 1427 1510 
C 1254 1510 1011 1542 813 1929 
C 678 2181 678 2477 678 2793 
C 678 3174 678 3438 858 3722 
C 947 3857 1114 4076 1485 4076 
C 2240 4076 2240 2909 2240 2651 
C 2240 2193 2035 1510 1427 1510 
z
" transform="scale(0.015625)"/>
      <path id="CMR17-33" d="M 1414 2176 
C 1984 2176 2234 1673 2234 1094 
C 2234 322 1824 25 1453 25 
C 1114 25 563 193 390 691 
C 422 678 454 678 486 678 
C 640 678 755 780 755 947 
C 755 1132 614 1216 486 1216 
C 378 1216 211 1164 211 927 
C 211 335 787 -128 1466 -128 
C 2176 -128 2720 432 2720 1087 
C 2720 1718 2208 2176 1600 2246 
C 2086 2347 2554 2776 2554 3353 
C 2554 3856 2048 4224 1472 4224 
C 890 4224 378 3862 378 3347 
C 378 3123 544 3084 627 3084 
C 762 3084 877 3167 877 3334 
C 877 3500 762 3584 627 3584 
C 602 3584 570 3584 544 3571 
C 730 3999 1235 4076 1459 4076 
C 1683 4076 2106 3966 2106 3347 
C 2106 3167 2080 2851 1862 2574 
C 1670 2329 1453 2316 1242 2297 
C 1210 2297 1062 2284 1037 2284 
C 992 2278 966 2272 966 2227 
C 966 2182 973 2176 1101 2176 
L 1414 2176 
z
" transform="scale(0.015625)"/>
     </defs>
     <use xlink:href="#CMMI12-12" transform="scale(0.996264)"/>
     <use xlink:href="#CMMI12-3d" transform="translate(48.169508 0) scale(0.996264)"/>
     <use xlink:href="#CMMI12-19" transform="translate(96.944427 0) scale(0.996264)"/>
     <use xlink:href="#CMR17-3d" transform="translate(183.529036 0) scale(0.996264)"/>
     <use xlink:href="#CMR17-30" transform="translate(282.917833 0) scale(0.996264)"/>
     <use xlink:href="#CMMI12-3a" transform="translate(328.60831 0) scale(0.996264)"/>
     <use xlink:href="#CMR17-39" transform="translate(355.705487 0) scale(0.996264)"/>
     <use xlink:href="#CMR17-33" transform="translate(401.395964 0) scale(0.996264)"/>
    </g>
   </g>
   <g id="text_12">
    <!-- (b) -->
    <g transform="translate(151.099221 43.973603) scale(0.32 -0.32)">
     <defs>
      <path id="CMR17-28" d="M 1958 -1562 
C 1958 -1556 1958 -1543 1939 -1524 
C 1645 -1223 858 -403 858 1596 
C 858 3595 1632 4408 1946 4729 
C 1946 4735 1958 4748 1958 4767 
C 1958 4787 1939 4800 1914 4800 
C 1843 4800 1299 4325 986 3620 
C 666 2909 576 2218 576 1603 
C 576 1141 621 360 1005 -467 
C 1312 -1133 1837 -1600 1914 -1600 
C 1946 -1600 1958 -1588 1958 -1562 
z
" transform="scale(0.015625)"/>
      <path id="CMR17-62" d="M 960 4416 
L 198 4345 
L 198 4179 
C 576 4179 634 4141 634 3843 
L 634 -13 
L 749 -13 
L 934 445 
C 1120 141 1395 -64 1766 -64 
C 2406 -64 3053 503 3053 1382 
C 3053 2209 2477 2816 1830 2816 
C 1434 2816 1152 2603 960 2351 
L 960 4416 
z
M 973 2022 
C 973 2138 973 2157 1062 2293 
C 1312 2681 1670 2713 1792 2713 
C 1984 2713 2643 2610 2643 1388 
C 2643 109 1888 38 1734 38 
C 1536 38 1248 115 1043 490 
C 973 613 973 626 973 742 
L 973 2022 
z
" transform="scale(0.015625)"/>
      <path id="CMR17-29" d="M 1683 1596 
C 1683 2057 1638 2839 1254 3665 
C 947 4332 422 4800 346 4800 
C 326 4800 301 4793 301 4761 
C 301 4748 307 4742 314 4729 
C 621 4408 1402 3595 1402 1603 
C 1402 -396 627 -1210 314 -1530 
C 307 -1543 301 -1549 301 -1562 
C 301 -1594 326 -1600 346 -1600 
C 416 -1600 960 -1127 1274 -422 
C 1594 289 1683 981 1683 1596 
z
" transform="scale(0.015625)"/>
     </defs>
     <use xlink:href="#CMR17-28" transform="scale(0.996264)"/>
     <use xlink:href="#CMR17-62" transform="translate(35.280768 0) scale(0.996264)"/>
     <use xlink:href="#CMR17-29" transform="translate(86.176138 0) scale(0.996264)"/>
    </g>
   </g>
   <g id="legend_1">
    <g id="patch_7">
     <path d="M 131.649221 161.029603 
L 714.15551 161.029603 
Q 720.55551 161.029603 720.55551 154.629603 
L 720.55551 110.308306 
Q 720.55551 103.908306 714.15551 103.908306 
L 131.649221 103.908306 
Q 125.249221 103.908306 125.249221 110.308306 
L 125.249221 154.629603 
Q 125.249221 161.029603 131.649221 161.029603 
z
" style="fill: #ffffff; opacity: 0.8; stroke: #cccccc; stroke-linejoin: miter"/>
    </g>
    <g id="line2d_14">
     <path d="M 138.049221 127.908306 
L 170.049221 127.908306 
L 202.049221 127.908306 
" style="fill: none; stroke-dasharray: 5.55,2.4; stroke-dashoffset: 0; stroke: #0000ff; stroke-width: 1.5"/>
    </g>
    <g id="text_13">
     <!-- $\Delta\mathcal{N}_g$ -->
     <g transform="translate(227.649221 139.108306) scale(0.32 -0.32)">
      <defs>
       <path id="CMMI12-67" d="M 2163 811 
C 2138 708 2125 683 2042 587 
C 1779 249 1510 128 1312 128 
C 1101 128 902 293 902 734 
C 902 1072 1094 1787 1235 2075 
C 1421 2432 1709 2687 1978 2687 
C 2400 2687 2483 2164 2483 2126 
L 2464 2036 
L 2163 811 
z
M 2560 2394 
C 2477 2579 2298 2816 1978 2816 
C 1280 2816 486 1941 486 989 
C 486 325 890 0 1299 0 
C 1638 0 1939 268 2054 396 
L 1914 -176 
C 1824 -520 1786 -677 1555 -896 
C 1293 -1152 1050 -1152 909 -1152 
C 717 -1152 557 -1140 397 -1090 
C 602 -1034 653 -858 653 -789 
C 653 -689 576 -589 435 -589 
C 282 -589 115 -714 115 -921 
C 115 -1178 378 -1280 922 -1280 
C 1747 -1280 2176 -758 2259 -420 
L 2970 2426 
C 2989 2502 2989 2515 2989 2528 
C 2989 2617 2918 2688 2822 2688 
C 2669 2688 2579 2560 2560 2388 
L 2560 2394 
z
" transform="scale(0.015625)"/>
      </defs>
      <use xlink:href="#CMR17-1" transform="scale(0.996264)"/>
      <use xlink:href="#CMSY10-4e" transform="translate(76.91959 0) scale(0.996264)"/>
      <use xlink:href="#CMMI12-67" transform="translate(158.662128 -14.943915) scale(0.697382)"/>
     </g>
    </g>
    <g id="line2d_15">
     <path d="M 352.884296 127.908306 
L 384.884296 127.908306 
L 416.884296 127.908306 
" style="fill: none; stroke: #ff0000; stroke-width: 1.5; stroke-linecap: square"/>
    </g>
    <g id="text_14">
     <!-- $\Delta\mathcal{N}_e$ -->
     <g transform="translate(442.484296 139.108306) scale(0.32 -0.32)">
      <defs>
       <path id="CMMI12-65" d="M 1146 1472 
C 1318 1472 1754 1484 2061 1600 
C 2547 1786 2592 2160 2592 2275 
C 2592 2559 2349 2816 1926 2816 
C 1254 2816 288 2205 288 1066 
C 288 400 672 -64 1254 -64 
C 2125 -64 2675 609 2675 691 
C 2675 729 2637 761 2611 761 
C 2592 761 2586 755 2528 698 
C 2118 159 1510 64 1267 64 
C 902 64 710 349 710 818 
C 710 907 710 1066 806 1472 
L 1146 1472 
z
M 838 1600 
C 1114 2591 1722 2687 1926 2687 
C 2208 2687 2400 2520 2400 2275 
C 2400 1600 1376 1600 1107 1600 
L 838 1600 
z
" transform="scale(0.015625)"/>
      </defs>
      <use xlink:href="#CMR17-1" transform="scale(0.996264)"/>
      <use xlink:href="#CMSY10-4e" transform="translate(76.91959 0) scale(0.996264)"/>
      <use xlink:href="#CMMI12-65" transform="translate(158.662128 -14.943915) scale(0.697382)"/>
     </g>
    </g>
    <g id="line2d_16">
     <path d="M 567.383624 127.908306 
L 599.383624 127.908306 
L 631.383624 127.908306 
" style="fill: none; stroke: #000000; stroke-width: 1.5; stroke-linecap: square"/>
     <g>
      <use xlink:href="#m727d7e6ba8" x="599.383624" y="127.908306" style="stroke: #000000"/>
     </g>
    </g>
    <g id="text_15">
     <!-- $\Delta\mathcal{N}$ -->
     <g transform="translate(656.983624 139.108306) scale(0.32 -0.32)">
      <use xlink:href="#CMR17-1" transform="scale(0.996264)"/>
      <use xlink:href="#CMSY10-4e" transform="translate(76.91959 0) scale(0.996264)"/>
     </g>
    </g>
   </g>
  </g>
 </g>
 <defs>
  <clipPath id="p4eb05b7d1b">
   <rect x="109.249221" y="10.709603" width="837" height="166.32"/>
  </clipPath>
 </defs>
</svg>
