<?xml version="1.0" encoding="utf-8" standalone="no"?>
<!DOCTYPE svg PUBLIC "-//W3C//DTD SVG 1.1//EN"
  "http://www.w3.org/Graphics/SVG/1.1/DTD/svg11.dtd">
<svg xmlns:xlink="http://www.w3.org/1999/xlink" width="651.157172pt" height="640.020675pt" viewBox="0 0 651.157172 640.020675" xmlns="http://www.w3.org/2000/svg" version="1.1">
 <metadata>
  <rdf:RDF xmlns:dc="http://purl.org/dc/elements/1.1/" xmlns:cc="http://creativecommons.org/ns#" xmlns:rdf="http://www.w3.org/1999/02/22-rdf-syntax-ns#">
   <cc:Work>
    <dc:type rdf:resource="http://purl.org/dc/dcmitype/StillImage"/>
    <dc:date>2023-08-18T12:06:09.304822</dc:date>
    <dc:format>image/svg+xml</dc:format>
    <dc:creator>
     <cc:Agent>
      <dc:title>Matplotlib v3.7.1, https://matplotlib.org/</dc:title>
     </cc:Agent>
    </dc:creator>
   </cc:Work>
  </rdf:RDF>
 </metadata>
 <defs>
  <style type="text/css">*{stroke-linejoin: round; stroke-linecap: butt}</style>
 </defs>
 <g id="figure_1">
  <g id="patch_1">
   <path d="M 0 640.020675 
L 651.157172 640.020675 
L 651.157172 0 
L 0 0 
z
" style="fill: #ffffff"/>
  </g>
  <g id="axes_1">
   <g id="patch_2">
    <path d="M 85.957172 561.6 
L 643.957172 561.6 
L 643.957172 7.2 
L 85.957172 7.2 
z
" style="fill: #ffffff"/>
   </g>
   <g id="matplotlib.axis_1">
    <g id="xtick_1">
     <g id="line2d_1">
      <defs>
       <path id="m747280221f" d="M 0 0 
L 0 3.5 
" style="stroke: #000000; stroke-width: 0.8"/>
      </defs>
      <g>
       <use xlink:href="#m747280221f" x="104.074055" y="561.6" style="stroke: #000000; stroke-width: 0.8"/>
      </g>
     </g>
     <g id="text_1">
      <!-- $\mathdefault{0.00}$ -->
      <g transform="translate(77.807077 590.739207) scale(0.32 -0.32)">
       <defs>
        <path id="CMR17-30" d="M 2688 2038 
C 2688 2430 2682 3099 2413 3613 
C 2176 4063 1798 4224 1466 4224 
C 1158 4224 768 4082 525 3620 
C 269 3137 243 2539 243 2038 
C 243 1671 250 1112 448 623 
C 723 -39 1216 -128 1466 -128 
C 1760 -128 2208 -7 2470 604 
C 2662 1048 2688 1568 2688 2038 
z
M 1466 -26 
C 1056 -26 813 328 723 816 
C 653 1196 653 1749 653 2109 
C 653 2604 653 3015 736 3407 
C 858 3954 1216 4121 1466 4121 
C 1728 4121 2067 3947 2189 3420 
C 2272 3054 2278 2623 2278 2109 
C 2278 1691 2278 1176 2202 797 
C 2067 96 1690 -26 1466 -26 
z
" transform="scale(0.015625)"/>
        <path id="CMMI12-3a" d="M 1178 307 
C 1178 492 1024 620 870 620 
C 685 620 557 467 557 313 
C 557 128 710 0 864 0 
C 1050 0 1178 153 1178 307 
z
" transform="scale(0.015625)"/>
       </defs>
       <use xlink:href="#CMR17-30" transform="scale(0.996264)"/>
       <use xlink:href="#CMMI12-3a" transform="translate(45.690477 0) scale(0.996264)"/>
       <use xlink:href="#CMR17-30" transform="translate(72.787654 0) scale(0.996264)"/>
       <use xlink:href="#CMR17-30" transform="translate(118.478131 0) scale(0.996264)"/>
      </g>
     </g>
    </g>
    <g id="xtick_2">
     <g id="line2d_2">
      <g>
       <use xlink:href="#m747280221f" x="230.892237" y="561.6" style="stroke: #000000; stroke-width: 0.8"/>
      </g>
     </g>
     <g id="text_2">
      <!-- $\mathdefault{0.25}$ -->
      <g transform="translate(204.625259 590.739207) scale(0.32 -0.32)">
       <defs>
        <path id="CMR17-32" d="M 2669 990 
L 2554 990 
C 2490 537 2438 460 2413 422 
C 2381 371 1920 371 1830 371 
L 602 371 
C 832 620 1280 1073 1824 1596 
C 2214 1966 2669 2400 2669 3033 
C 2669 3788 2067 4224 1395 4224 
C 691 4224 262 3603 262 3027 
C 262 2777 448 2745 525 2745 
C 589 2745 781 2783 781 3007 
C 781 3206 614 3264 525 3264 
C 486 3264 448 3257 422 3244 
C 544 3788 915 4057 1306 4057 
C 1862 4057 2227 3616 2227 3033 
C 2227 2477 1901 1998 1536 1583 
L 262 147 
L 262 0 
L 2515 0 
L 2669 990 
z
" transform="scale(0.015625)"/>
        <path id="CMR17-35" d="M 730 3750 
C 794 3724 1056 3641 1325 3641 
C 1920 3641 2246 3961 2432 4140 
C 2432 4191 2432 4224 2394 4224 
C 2387 4224 2374 4224 2323 4198 
C 2099 4102 1837 4032 1517 4032 
C 1325 4032 1037 4055 723 4191 
C 653 4224 640 4224 634 4224 
C 602 4224 595 4217 595 4090 
L 595 2231 
C 595 2113 595 2080 659 2080 
C 691 2080 704 2093 736 2139 
C 941 2435 1222 2560 1542 2560 
C 1766 2560 2246 2415 2246 1293 
C 2246 1087 2246 716 2054 422 
C 1894 159 1645 25 1370 25 
C 947 25 518 319 403 812 
C 429 806 480 793 506 793 
C 589 793 749 838 749 1036 
C 749 1209 627 1280 506 1280 
C 358 1280 262 1190 262 1011 
C 262 454 704 -128 1382 -128 
C 2042 -128 2669 441 2669 1267 
C 2669 2054 2170 2662 1549 2662 
C 1222 2662 947 2540 730 2304 
L 730 3750 
z
" transform="scale(0.015625)"/>
       </defs>
       <use xlink:href="#CMR17-30" transform="scale(0.996264)"/>
       <use xlink:href="#CMMI12-3a" transform="translate(45.690477 0) scale(0.996264)"/>
       <use xlink:href="#CMR17-32" transform="translate(72.787654 0) scale(0.996264)"/>
       <use xlink:href="#CMR17-35" transform="translate(118.478131 0) scale(0.996264)"/>
      </g>
     </g>
    </g>
    <g id="xtick_3">
     <g id="line2d_3">
      <g>
       <use xlink:href="#m747280221f" x="357.710418" y="561.6" style="stroke: #000000; stroke-width: 0.8"/>
      </g>
     </g>
     <g id="text_3">
      <!-- $\mathdefault{0.50}$ -->
      <g transform="translate(331.443441 590.739207) scale(0.32 -0.32)">
       <use xlink:href="#CMR17-30" transform="scale(0.996264)"/>
       <use xlink:href="#CMMI12-3a" transform="translate(45.690477 0) scale(0.996264)"/>
       <use xlink:href="#CMR17-35" transform="translate(72.787654 0) scale(0.996264)"/>
       <use xlink:href="#CMR17-30" transform="translate(118.478131 0) scale(0.996264)"/>
      </g>
     </g>
    </g>
    <g id="xtick_4">
     <g id="line2d_4">
      <g>
       <use xlink:href="#m747280221f" x="484.5286" y="561.6" style="stroke: #000000; stroke-width: 0.8"/>
      </g>
     </g>
     <g id="text_4">
      <!-- $\mathdefault{0.75}$ -->
      <g transform="translate(458.261623 590.739207) scale(0.32 -0.32)">
       <defs>
        <path id="CMR17-37" d="M 2886 3955 
L 2886 4096 
L 1382 4096 
C 634 4096 621 4166 595 4288 
L 480 4288 
L 294 3104 
L 410 3104 
C 429 3226 474 3552 550 3673 
C 589 3724 1062 3724 1171 3724 
L 2579 3724 
L 1869 2670 
C 1395 1961 1069 1003 1069 166 
C 1069 89 1069 -128 1299 -128 
C 1530 -128 1530 89 1530 172 
L 1530 466 
C 1530 1514 1709 2204 2003 2644 
L 2886 3955 
z
" transform="scale(0.015625)"/>
       </defs>
       <use xlink:href="#CMR17-30" transform="scale(0.996264)"/>
       <use xlink:href="#CMMI12-3a" transform="translate(45.690477 0) scale(0.996264)"/>
       <use xlink:href="#CMR17-37" transform="translate(72.787654 0) scale(0.996264)"/>
       <use xlink:href="#CMR17-35" transform="translate(118.478131 0) scale(0.996264)"/>
      </g>
     </g>
    </g>
    <g id="xtick_5">
     <g id="line2d_5">
      <g>
       <use xlink:href="#m747280221f" x="611.346782" y="561.6" style="stroke: #000000; stroke-width: 0.8"/>
      </g>
     </g>
     <g id="text_5">
      <!-- $\mathdefault{1.00}$ -->
      <g transform="translate(585.079805 590.739207) scale(0.32 -0.32)">
       <defs>
        <path id="CMR17-31" d="M 1702 4083 
C 1702 4217 1696 4224 1606 4224 
C 1357 3927 979 3833 621 3820 
C 602 3820 570 3820 563 3808 
C 557 3795 557 3782 557 3648 
C 755 3648 1088 3686 1344 3839 
L 1344 467 
C 1344 243 1331 166 781 166 
L 589 166 
L 589 0 
C 896 6 1216 12 1523 12 
C 1830 12 2150 6 2458 0 
L 2458 166 
L 2266 166 
C 1715 166 1702 236 1702 467 
L 1702 4083 
z
" transform="scale(0.015625)"/>
       </defs>
       <use xlink:href="#CMR17-31" transform="scale(0.996264)"/>
       <use xlink:href="#CMMI12-3a" transform="translate(45.690477 0) scale(0.996264)"/>
       <use xlink:href="#CMR17-30" transform="translate(72.787654 0) scale(0.996264)"/>
       <use xlink:href="#CMR17-30" transform="translate(118.478131 0) scale(0.996264)"/>
      </g>
     </g>
    </g>
    <g id="text_6">
     <!-- $\theta/\pi$ -->
     <g transform="translate(340.592302 624.850563) scale(0.32 -0.32)">
      <defs>
       <path id="CMMI12-12" d="M 2835 3200 
C 2835 3849 2630 4480 2106 4480 
C 1210 4480 256 2615 256 1215 
C 256 922 320 -64 992 -64 
C 1862 -64 2835 1755 2835 3200 
z
M 896 2304 
C 992 2679 1126 3213 1382 3665 
C 1594 4046 1818 4351 2099 4351 
C 2310 4351 2451 4173 2451 3563 
C 2451 3334 2432 3016 2246 2304 
L 896 2304 
z
M 2202 2112 
C 2042 1488 1907 1088 1677 687 
C 1491 362 1267 64 998 64 
C 800 64 640 216 640 846 
C 640 1259 742 1692 845 2112 
L 2202 2112 
z
" transform="scale(0.015625)"/>
       <path id="CMMI12-3d" d="M 2746 4563 
C 2746 4569 2784 4665 2784 4678 
C 2784 4755 2720 4800 2669 4800 
C 2637 4800 2579 4800 2528 4659 
L 384 -1364 
C 384 -1370 346 -1466 346 -1479 
C 346 -1556 410 -1600 461 -1600 
C 499 -1600 557 -1594 602 -1460 
L 2746 4563 
z
" transform="scale(0.015625)"/>
       <path id="CMMI12-19" d="M 1658 2406 
L 2381 2406 
C 2208 1691 2099 1225 2099 715 
C 2099 625 2099 -64 2362 -64 
C 2496 -64 2611 57 2611 166 
C 2611 198 2611 210 2566 306 
C 2394 746 2394 1295 2394 1340 
C 2394 1378 2394 1832 2528 2406 
L 3245 2406 
C 3328 2406 3539 2406 3539 2611 
C 3539 2752 3418 2752 3302 2752 
L 1197 2752 
C 1050 2752 832 2752 538 2438 
C 371 2253 166 1915 166 1876 
C 166 1838 198 1825 237 1825 
C 282 1825 288 1844 320 1883 
C 653 2406 986 2406 1146 2406 
L 1510 2406 
C 1370 1927 1210 1372 685 255 
C 634 153 634 140 634 102 
C 634 -32 749 -64 806 -64 
C 992 -64 1043 102 1120 370 
C 1222 695 1222 708 1286 964 
L 1658 2406 
z
" transform="scale(0.015625)"/>
      </defs>
      <use xlink:href="#CMMI12-12" transform="scale(0.996264)"/>
      <use xlink:href="#CMMI12-3d" transform="translate(48.169508 0) scale(0.996264)"/>
      <use xlink:href="#CMMI12-19" transform="translate(96.944427 0) scale(0.996264)"/>
     </g>
    </g>
   </g>
   <g id="matplotlib.axis_2">
    <g id="ytick_1">
     <g id="line2d_6">
      <defs>
       <path id="me2590ca3ca" d="M 0 0 
L -3.5 0 
" style="stroke: #000000; stroke-width: 0.8"/>
      </defs>
      <g>
       <use xlink:href="#me2590ca3ca" x="85.957172" y="512.968421" style="stroke: #000000; stroke-width: 0.8"/>
      </g>
     </g>
     <g id="text_7">
      <!-- $\mathdefault{−4}$ -->
      <g transform="translate(39.540227 524.038025) scale(0.32 -0.32)">
       <defs>
        <path id="CMSY10-0" d="M 4218 1472 
C 4326 1472 4442 1472 4442 1600 
C 4442 1728 4326 1728 4218 1728 
L 755 1728 
C 646 1728 531 1728 531 1600 
C 531 1472 646 1472 755 1472 
L 4218 1472 
z
" transform="scale(0.015625)"/>
        <path id="CMR17-34" d="M 2150 4147 
C 2150 4281 2144 4288 2029 4288 
L 128 1254 
L 128 1088 
L 1779 1088 
L 1779 460 
C 1779 230 1766 166 1318 166 
L 1197 166 
L 1197 0 
C 1402 12 1747 12 1965 12 
C 2182 12 2528 12 2733 0 
L 2733 166 
L 2611 166 
C 2163 166 2150 230 2150 460 
L 2150 1088 
L 2803 1088 
L 2803 1254 
L 2150 1254 
L 2150 4147 
z
M 1798 3723 
L 1798 1254 
L 256 1254 
L 1798 3723 
z
" transform="scale(0.015625)"/>
       </defs>
       <use xlink:href="#CMSY10-0" transform="scale(0.996264)"/>
       <use xlink:href="#CMR17-34" transform="translate(77.487468 0) scale(0.996264)"/>
      </g>
     </g>
    </g>
    <g id="ytick_2">
     <g id="line2d_7">
      <g>
       <use xlink:href="#me2590ca3ca" x="85.957172" y="415.705263" style="stroke: #000000; stroke-width: 0.8"/>
      </g>
     </g>
     <g id="text_8">
      <!-- $\mathdefault{−3}$ -->
      <g transform="translate(39.540227 426.774867) scale(0.32 -0.32)">
       <defs>
        <path id="CMR17-33" d="M 1414 2176 
C 1984 2176 2234 1673 2234 1094 
C 2234 322 1824 25 1453 25 
C 1114 25 563 193 390 691 
C 422 678 454 678 486 678 
C 640 678 755 780 755 947 
C 755 1132 614 1216 486 1216 
C 378 1216 211 1164 211 927 
C 211 335 787 -128 1466 -128 
C 2176 -128 2720 432 2720 1087 
C 2720 1718 2208 2176 1600 2246 
C 2086 2347 2554 2776 2554 3353 
C 2554 3856 2048 4224 1472 4224 
C 890 4224 378 3862 378 3347 
C 378 3123 544 3084 627 3084 
C 762 3084 877 3167 877 3334 
C 877 3500 762 3584 627 3584 
C 602 3584 570 3584 544 3571 
C 730 3999 1235 4076 1459 4076 
C 1683 4076 2106 3966 2106 3347 
C 2106 3167 2080 2851 1862 2574 
C 1670 2329 1453 2316 1242 2297 
C 1210 2297 1062 2284 1037 2284 
C 992 2278 966 2272 966 2227 
C 966 2182 973 2176 1101 2176 
L 1414 2176 
z
" transform="scale(0.015625)"/>
       </defs>
       <use xlink:href="#CMSY10-0" transform="scale(0.996264)"/>
       <use xlink:href="#CMR17-33" transform="translate(77.487468 0) scale(0.996264)"/>
      </g>
     </g>
    </g>
    <g id="ytick_3">
     <g id="line2d_8">
      <g>
       <use xlink:href="#me2590ca3ca" x="85.957172" y="318.442105" style="stroke: #000000; stroke-width: 0.8"/>
      </g>
     </g>
     <g id="text_9">
      <!-- $\mathdefault{−2}$ -->
      <g transform="translate(39.540227 329.511709) scale(0.32 -0.32)">
       <use xlink:href="#CMSY10-0" transform="scale(0.996264)"/>
       <use xlink:href="#CMR17-32" transform="translate(77.487468 0) scale(0.996264)"/>
      </g>
     </g>
    </g>
    <g id="ytick_4">
     <g id="line2d_9">
      <g>
       <use xlink:href="#me2590ca3ca" x="85.957172" y="221.178947" style="stroke: #000000; stroke-width: 0.8"/>
      </g>
     </g>
     <g id="text_10">
      <!-- $\mathdefault{−1}$ -->
      <g transform="translate(39.540227 232.248551) scale(0.32 -0.32)">
       <use xlink:href="#CMSY10-0" transform="scale(0.996264)"/>
       <use xlink:href="#CMR17-31" transform="translate(77.487468 0) scale(0.996264)"/>
      </g>
     </g>
    </g>
    <g id="ytick_5">
     <g id="line2d_10">
      <g>
       <use xlink:href="#me2590ca3ca" x="85.957172" y="123.915789" style="stroke: #000000; stroke-width: 0.8"/>
      </g>
     </g>
     <g id="text_11">
      <!-- $\mathdefault{0}$ -->
      <g transform="translate(64.336219 134.985393) scale(0.32 -0.32)">
       <use xlink:href="#CMR17-30" transform="scale(0.996264)"/>
      </g>
     </g>
    </g>
    <g id="ytick_6">
     <g id="line2d_11">
      <g>
       <use xlink:href="#me2590ca3ca" x="85.957172" y="26.652632" style="stroke: #000000; stroke-width: 0.8"/>
      </g>
     </g>
     <g id="text_12">
      <!-- $\mathdefault{1}$ -->
      <g transform="translate(64.336219 37.722235) scale(0.32 -0.32)">
       <use xlink:href="#CMR17-31" transform="scale(0.996264)"/>
      </g>
     </g>
    </g>
    <g id="text_13">
     <!-- $\Delta \mathcal{N}$ -->
     <g transform="translate(29.339207 309.785943) rotate(-90) scale(0.32 -0.32)">
      <defs>
       <path id="CMR17-1" d="M 2598 4435 
C 2547 4544 2522 4544 2470 4544 
C 2394 4544 2387 4531 2342 4441 
L 269 108 
C 262 96 237 38 237 32 
C 237 6 243 0 358 0 
L 4576 0 
C 4691 0 4698 6 4698 32 
C 4698 38 4672 96 4666 108 
L 2598 4435 
z
M 2310 4056 
L 4083 358 
L 531 358 
L 2310 4056 
z
" transform="scale(0.015625)"/>
       <path id="CMSY10-4e" d="M 1958 3657 
C 2074 3326 2214 2848 2502 2065 
C 2906 982 3085 587 3475 -20 
C 3565 -154 3571 -160 3629 -160 
C 3718 -160 3853 -84 3923 -32 
C 4013 51 4019 57 4090 370 
C 4474 2046 4960 3791 5088 4084 
C 5094 4097 5222 4339 6010 4352 
C 6138 4358 6259 4697 6259 4838 
C 6259 4940 6221 4940 6131 4940 
C 5491 4940 5203 4672 5126 4588 
C 4947 4358 4794 3893 4499 2829 
C 4275 2014 4070 1186 3872 364 
C 3520 893 3322 1396 3014 2218 
C 2675 3122 2470 3785 2298 4358 
C 2259 4486 2253 4492 2195 4492 
C 2182 4492 2054 4492 1869 4339 
C 1805 4282 1798 4224 1792 4154 
C 1613 2460 1011 784 838 479 
C 787 383 710 268 582 268 
C 518 268 269 300 102 453 
C 70 479 58 479 51 479 
C -51 479 -186 160 -186 6 
C -186 -192 205 -320 384 -320 
C 794 -320 1120 580 1222 873 
C 1638 2026 1837 2976 1958 3657 
z
" transform="scale(0.015625)"/>
      </defs>
      <use xlink:href="#CMR17-1" transform="scale(0.996264)"/>
      <use xlink:href="#CMSY10-4e" transform="translate(76.91959 0) scale(0.996264)"/>
     </g>
    </g>
   </g>
   <g id="line2d_12">
    <path d="M 111.320808 123.962977 
L 118.567561 124.104624 
L 125.814314 124.34099 
L 133.061068 124.672507 
L 140.307821 125.099785 
L 147.554574 125.623612 
L 154.801327 126.244958 
L 162.048081 126.964986 
L 169.294834 127.785049 
L 176.541587 128.706706 
L 183.78834 129.731726 
L 191.035094 130.862097 
L 198.281847 132.100039 
L 205.5286 133.448017 
L 212.775353 134.908755 
L 220.022107 136.485249 
L 227.26886 138.180789 
L 234.515613 139.998975 
L 241.762366 141.943743 
L 249.00912 144.019387 
L 256.255873 146.230586 
L 263.502626 148.582437 
L 270.749379 151.080486 
L 277.996133 153.730769 
L 285.242886 156.539852 
L 292.489639 159.514877 
L 299.736392 162.663615 
L 306.983146 165.994523 
L 314.229899 169.516809 
L 321.476652 173.240502 
L 328.723405 177.176531 
L 335.970159 181.336815 
L 343.216912 185.734356 
L 350.463665 190.38335 
L 357.710418 195.299306 
L 364.957172 200.499174 
L 372.203925 206.00149 
L 379.450678 211.826531 
L 386.697431 217.996484 
L 393.944185 224.535625 
L 401.190938 231.470505 
L 408.437691 238.830141 
L 415.684444 246.646201 
L 422.931198 254.953174 
L 430.177951 263.788497 
L 437.424704 273.192616 
L 444.671457 283.208927 
L 451.918211 293.883531 
L 459.164964 305.264688 
L 466.411717 317.401816 
L 473.65847 330.343784 
L 480.905224 344.136144 
L 488.151977 358.816749 
L 495.39873 374.408956 
L 502.645483 390.911196 
L 509.892237 408.281137 
L 517.13899 426.411822 
L 524.385743 445.096078 
L 531.632496 463.974069 
L 538.87925 482.45749 
L 546.126003 499.623239 
L 553.372756 514.071718 
L 560.619509 523.754731 
L 567.866263 525.803868 
L 575.113016 516.444048 
L 582.359769 491.16387 
L 589.606522 445.401416 
L 596.853275 375.966059 
L 604.100029 283.038723 
L 611.346782 171.828092 
L 618.593535 52.418346 
" clip-path="url(#pb239aa808a)" style="fill: none; stroke-dasharray: 5.55,2.4; stroke-dashoffset: 0; stroke: #0000ff; stroke-width: 1.5"/>
   </g>
   <g id="line2d_13">
    <path d="M 111.320808 123.931993 
L 118.567561 123.980609 
L 125.814314 124.061658 
L 133.061068 124.175171 
L 140.307821 124.321192 
L 147.554574 124.49978 
L 154.801327 124.711005 
L 162.048081 124.954951 
L 169.294834 125.231713 
L 176.541587 125.541403 
L 183.78834 125.884144 
L 191.035094 126.260073 
L 198.281847 126.669341 
L 205.5286 127.112113 
L 212.775353 127.588568 
L 220.022107 128.098901 
L 227.26886 128.643319 
L 234.515613 129.222048 
L 241.762366 129.835326 
L 249.00912 130.483407 
L 256.255873 131.166565 
L 263.502626 131.885086 
L 270.749379 132.639275 
L 277.996133 133.429456 
L 285.242886 134.255967 
L 292.489639 135.11917 
L 299.736392 136.01944 
L 306.983146 136.957177 
L 314.229899 137.932799 
L 321.476652 138.946744 
L 328.723405 139.999474 
L 335.970159 141.091472 
L 343.216912 142.223245 
L 350.463665 143.395324 
L 357.710418 144.608265 
L 364.957172 145.86265 
L 372.203925 147.159089 
L 379.450678 148.498219 
L 386.697431 149.880708 
L 393.944185 151.307251 
L 401.190938 152.778581 
L 408.437691 154.295458 
L 415.684444 155.858681 
L 422.931198 157.469084 
L 430.177951 159.127539 
L 437.424704 160.834958 
L 444.671457 162.592295 
L 451.918211 164.400547 
L 459.164964 166.260759 
L 466.411717 168.17402 
L 473.65847 170.141474 
L 480.905224 172.164317 
L 488.151977 174.243799 
L 495.39873 176.38123 
L 502.645483 178.577984 
L 509.892237 180.835499 
L 517.13899 183.15528 
L 524.385743 185.538908 
L 531.632496 187.98804 
L 538.87925 190.504415 
L 546.126003 193.089855 
L 553.372756 195.746278 
L 560.619509 198.475696 
L 567.866263 201.280222 
L 575.113016 204.162082 
L 582.359769 207.123613 
L 589.606522 210.167279 
L 596.853275 213.29567 
L 604.100029 216.51152 
L 611.346782 219.817708 
L 618.593535 223.217271 
" clip-path="url(#pb239aa808a)" style="fill: none; stroke: #ff0000; stroke-width: 1.5; stroke-linecap: square"/>
   </g>
   <g id="line2d_14">
    <defs>
     <path id="m0714cd89f9" d="M -5 5 
L 5 5 
L 5 -5 
L -5 -5 
z
" style="stroke: #1e90ff; stroke-linejoin: miter"/>
    </defs>
    <g clip-path="url(#pb239aa808a)">
     <use xlink:href="#m0714cd89f9" x="111.320808" y="123.963271" style="fill: #1e90ff; stroke: #1e90ff; stroke-linejoin: miter"/>
     <use xlink:href="#m0714cd89f9" x="118.567561" y="124.105805" style="fill: #1e90ff; stroke: #1e90ff; stroke-linejoin: miter"/>
     <use xlink:href="#m0714cd89f9" x="125.814314" y="124.34365" style="fill: #1e90ff; stroke: #1e90ff; stroke-linejoin: miter"/>
     <use xlink:href="#m0714cd89f9" x="133.061068" y="124.677247" style="fill: #1e90ff; stroke: #1e90ff; stroke-linejoin: miter"/>
     <use xlink:href="#m0714cd89f9" x="140.307821" y="125.10721" style="fill: #1e90ff; stroke: #1e90ff; stroke-linejoin: miter"/>
     <use xlink:href="#m0714cd89f9" x="147.554574" y="125.634337" style="fill: #1e90ff; stroke: #1e90ff; stroke-linejoin: miter"/>
     <use xlink:href="#m0714cd89f9" x="154.801327" y="126.259611" style="fill: #1e90ff; stroke: #1e90ff; stroke-linejoin: miter"/>
     <use xlink:href="#m0714cd89f9" x="162.048081" y="126.984208" style="fill: #1e90ff; stroke: #1e90ff; stroke-linejoin: miter"/>
     <use xlink:href="#m0714cd89f9" x="169.294834" y="127.809497" style="fill: #1e90ff; stroke: #1e90ff; stroke-linejoin: miter"/>
     <use xlink:href="#m0714cd89f9" x="176.541587" y="128.737057" style="fill: #1e90ff; stroke: #1e90ff; stroke-linejoin: miter"/>
     <use xlink:href="#m0714cd89f9" x="183.78834" y="129.768676" style="fill: #1e90ff; stroke: #1e90ff; stroke-linejoin: miter"/>
     <use xlink:href="#m0714cd89f9" x="191.035094" y="130.906369" style="fill: #1e90ff; stroke: #1e90ff; stroke-linejoin: miter"/>
     <use xlink:href="#m0714cd89f9" x="198.281847" y="132.152383" style="fill: #1e90ff; stroke: #1e90ff; stroke-linejoin: miter"/>
     <use xlink:href="#m0714cd89f9" x="205.5286" y="133.509213" style="fill: #1e90ff; stroke: #1e90ff; stroke-linejoin: miter"/>
     <use xlink:href="#m0714cd89f9" x="212.775353" y="134.979618" style="fill: #1e90ff; stroke: #1e90ff; stroke-linejoin: miter"/>
     <use xlink:href="#m0714cd89f9" x="220.022107" y="136.566632" style="fill: #1e90ff; stroke: #1e90ff; stroke-linejoin: miter"/>
     <use xlink:href="#m0714cd89f9" x="227.26886" y="138.273587" style="fill: #1e90ff; stroke: #1e90ff; stroke-linejoin: miter"/>
     <use xlink:href="#m0714cd89f9" x="234.515613" y="140.104131" style="fill: #1e90ff; stroke: #1e90ff; stroke-linejoin: miter"/>
     <use xlink:href="#m0714cd89f9" x="241.762366" y="142.062252" style="fill: #1e90ff; stroke: #1e90ff; stroke-linejoin: miter"/>
     <use xlink:href="#m0714cd89f9" x="249.00912" y="144.152301" style="fill: #1e90ff; stroke: #1e90ff; stroke-linejoin: miter"/>
     <use xlink:href="#m0714cd89f9" x="256.255873" y="146.379022" style="fill: #1e90ff; stroke: #1e90ff; stroke-linejoin: miter"/>
     <use xlink:href="#m0714cd89f9" x="263.502626" y="148.747582" style="fill: #1e90ff; stroke: #1e90ff; stroke-linejoin: miter"/>
     <use xlink:href="#m0714cd89f9" x="270.749379" y="151.263607" style="fill: #1e90ff; stroke: #1e90ff; stroke-linejoin: miter"/>
     <use xlink:href="#m0714cd89f9" x="277.996133" y="153.933219" style="fill: #1e90ff; stroke: #1e90ff; stroke-linejoin: miter"/>
     <use xlink:href="#m0714cd89f9" x="285.242886" y="156.763079" style="fill: #1e90ff; stroke: #1e90ff; stroke-linejoin: miter"/>
     <use xlink:href="#m0714cd89f9" x="292.489639" y="159.760437" style="fill: #1e90ff; stroke: #1e90ff; stroke-linejoin: miter"/>
     <use xlink:href="#m0714cd89f9" x="299.736392" y="162.933182" style="fill: #1e90ff; stroke: #1e90ff; stroke-linejoin: miter"/>
     <use xlink:href="#m0714cd89f9" x="306.983146" y="166.289904" style="fill: #1e90ff; stroke: #1e90ff; stroke-linejoin: miter"/>
     <use xlink:href="#m0714cd89f9" x="314.229899" y="169.839957" style="fill: #1e90ff; stroke: #1e90ff; stroke-linejoin: miter"/>
     <use xlink:href="#m0714cd89f9" x="321.476652" y="173.593535" style="fill: #1e90ff; stroke: #1e90ff; stroke-linejoin: miter"/>
     <use xlink:href="#m0714cd89f9" x="328.723405" y="177.561751" style="fill: #1e90ff; stroke: #1e90ff; stroke-linejoin: miter"/>
     <use xlink:href="#m0714cd89f9" x="335.970159" y="181.756731" style="fill: #1e90ff; stroke: #1e90ff; stroke-linejoin: miter"/>
     <use xlink:href="#m0714cd89f9" x="343.216912" y="186.191712" style="fill: #1e90ff; stroke: #1e90ff; stroke-linejoin: miter"/>
     <use xlink:href="#m0714cd89f9" x="350.463665" y="190.881149" style="fill: #1e90ff; stroke: #1e90ff; stroke-linejoin: miter"/>
     <use xlink:href="#m0714cd89f9" x="357.710418" y="195.840842" style="fill: #1e90ff; stroke: #1e90ff; stroke-linejoin: miter"/>
     <use xlink:href="#m0714cd89f9" x="364.957172" y="201.088071" style="fill: #1e90ff; stroke: #1e90ff; stroke-linejoin: miter"/>
     <use xlink:href="#m0714cd89f9" x="372.203925" y="206.641747" style="fill: #1e90ff; stroke: #1e90ff; stroke-linejoin: miter"/>
     <use xlink:href="#m0714cd89f9" x="379.450678" y="212.52258" style="fill: #1e90ff; stroke: #1e90ff; stroke-linejoin: miter"/>
     <use xlink:href="#m0714cd89f9" x="386.697431" y="218.753249" style="fill: #1e90ff; stroke: #1e90ff; stroke-linejoin: miter"/>
     <use xlink:href="#m0714cd89f9" x="393.944185" y="225.358597" style="fill: #1e90ff; stroke: #1e90ff; stroke-linejoin: miter"/>
     <use xlink:href="#m0714cd89f9" x="401.190938" y="232.365815" style="fill: #1e90ff; stroke: #1e90ff; stroke-linejoin: miter"/>
     <use xlink:href="#m0714cd89f9" x="408.437691" y="239.80466" style="fill: #1e90ff; stroke: #1e90ff; stroke-linejoin: miter"/>
     <use xlink:href="#m0714cd89f9" x="415.684444" y="247.707655" style="fill: #1e90ff; stroke: #1e90ff; stroke-linejoin: miter"/>
     <use xlink:href="#m0714cd89f9" x="422.931198" y="256.110277" style="fill: #1e90ff; stroke: #1e90ff; stroke-linejoin: miter"/>
     <use xlink:href="#m0714cd89f9" x="430.177951" y="265.051107" style="fill: #1e90ff; stroke: #1e90ff; stroke-linejoin: miter"/>
     <use xlink:href="#m0714cd89f9" x="437.424704" y="274.571921" style="fill: #1e90ff; stroke: #1e90ff; stroke-linejoin: miter"/>
     <use xlink:href="#m0714cd89f9" x="444.671457" y="284.717689" style="fill: #1e90ff; stroke: #1e90ff; stroke-linejoin: miter"/>
     <use xlink:href="#m0714cd89f9" x="451.918211" y="295.536383" style="fill: #1e90ff; stroke: #1e90ff; stroke-linejoin: miter"/>
     <use xlink:href="#m0714cd89f9" x="459.164964" y="307.078509" style="fill: #1e90ff; stroke: #1e90ff; stroke-linejoin: miter"/>
     <use xlink:href="#m0714cd89f9" x="466.411717" y="319.396126" style="fill: #1e90ff; stroke: #1e90ff; stroke-linejoin: miter"/>
     <use xlink:href="#m0714cd89f9" x="473.65847" y="332.541179" style="fill: #1e90ff; stroke: #1e90ff; stroke-linejoin: miter"/>
     <use xlink:href="#m0714cd89f9" x="480.905224" y="346.56287" style="fill: #1e90ff; stroke: #1e90ff; stroke-linejoin: miter"/>
     <use xlink:href="#m0714cd89f9" x="488.151977" y="361.503375" style="fill: #1e90ff; stroke: #1e90ff; stroke-linejoin: miter"/>
     <use xlink:href="#m0714cd89f9" x="495.39873" y="377.391343" style="fill: #1e90ff; stroke: #1e90ff; stroke-linejoin: miter"/>
     <use xlink:href="#m0714cd89f9" x="502.645483" y="394.231537" style="fill: #1e90ff; stroke: #1e90ff; stroke-linejoin: miter"/>
     <use xlink:href="#m0714cd89f9" x="509.892237" y="411.989256" style="fill: #1e90ff; stroke: #1e90ff; stroke-linejoin: miter"/>
     <use xlink:href="#m0714cd89f9" x="517.13899" y="430.566459" style="fill: #1e90ff; stroke: #1e90ff; stroke-linejoin: miter"/>
     <use xlink:href="#m0714cd89f9" x="524.385743" y="449.766419" style="fill: #1e90ff; stroke: #1e90ff; stroke-linejoin: miter"/>
     <use xlink:href="#m0714cd89f9" x="531.632496" y="469.241284" style="fill: #1e90ff; stroke: #1e90ff; stroke-linejoin: miter"/>
     <use xlink:href="#m0714cd89f9" x="538.87925" y="488.416099" style="fill: #1e90ff; stroke: #1e90ff; stroke-linejoin: miter"/>
     <use xlink:href="#m0714cd89f9" x="546.126003" y="506.38176" style="fill: #1e90ff; stroke: #1e90ff; stroke-linejoin: miter"/>
     <use xlink:href="#m0714cd89f9" x="553.372756" y="521.751603" style="fill: #1e90ff; stroke: #1e90ff; stroke-linejoin: miter"/>
     <use xlink:href="#m0714cd89f9" x="560.619509" y="532.486038" style="fill: #1e90ff; stroke: #1e90ff; stroke-linejoin: miter"/>
     <use xlink:href="#m0714cd89f9" x="567.866263" y="535.715025" style="fill: #1e90ff; stroke: #1e90ff; stroke-linejoin: miter"/>
     <use xlink:href="#m0714cd89f9" x="575.113016" y="527.642849" style="fill: #1e90ff; stroke: #1e90ff; stroke-linejoin: miter"/>
     <use xlink:href="#m0714cd89f9" x="582.359769" y="503.70656" style="fill: #1e90ff; stroke: #1e90ff; stroke-linejoin: miter"/>
     <use xlink:href="#m0714cd89f9" x="589.606522" y="459.250262" style="fill: #1e90ff; stroke: #1e90ff; stroke-linejoin: miter"/>
     <use xlink:href="#m0714cd89f9" x="596.853275" y="390.943643" style="fill: #1e90ff; stroke: #1e90ff; stroke-linejoin: miter"/>
     <use xlink:href="#m0714cd89f9" x="604.100029" y="298.799473" style="fill: #1e90ff; stroke: #1e90ff; stroke-linejoin: miter"/>
     <use xlink:href="#m0714cd89f9" x="611.346782" y="187.874363" style="fill: #1e90ff; stroke: #1e90ff; stroke-linejoin: miter"/>
     <use xlink:href="#m0714cd89f9" x="618.593535" y="68.175195" style="fill: #1e90ff; stroke: #1e90ff; stroke-linejoin: miter"/>
    </g>
   </g>
   <g id="line2d_15">
    <defs>
     <path id="ma2f273d3ea" d="M 0 -5 
L -5 5 
L 5 5 
z
" style="stroke: #ee82ee; stroke-linejoin: miter"/>
    </defs>
    <g clip-path="url(#pb239aa808a)">
     <use xlink:href="#ma2f273d3ea" x="111.320808" y="123.932013" style="fill: #ee82ee; stroke: #ee82ee; stroke-linejoin: miter"/>
     <use xlink:href="#ma2f273d3ea" x="118.567561" y="123.980691" style="fill: #ee82ee; stroke: #ee82ee; stroke-linejoin: miter"/>
     <use xlink:href="#ma2f273d3ea" x="125.814314" y="124.061842" style="fill: #ee82ee; stroke: #ee82ee; stroke-linejoin: miter"/>
     <use xlink:href="#ma2f273d3ea" x="133.061068" y="124.175498" style="fill: #ee82ee; stroke: #ee82ee; stroke-linejoin: miter"/>
     <use xlink:href="#ma2f273d3ea" x="140.307821" y="124.321703" style="fill: #ee82ee; stroke: #ee82ee; stroke-linejoin: miter"/>
     <use xlink:href="#ma2f273d3ea" x="147.554574" y="124.500516" style="fill: #ee82ee; stroke: #ee82ee; stroke-linejoin: miter"/>
     <use xlink:href="#ma2f273d3ea" x="154.801327" y="124.712007" style="fill: #ee82ee; stroke: #ee82ee; stroke-linejoin: miter"/>
     <use xlink:href="#ma2f273d3ea" x="162.048081" y="124.956259" style="fill: #ee82ee; stroke: #ee82ee; stroke-linejoin: miter"/>
     <use xlink:href="#ma2f273d3ea" x="169.294834" y="125.23337" style="fill: #ee82ee; stroke: #ee82ee; stroke-linejoin: miter"/>
     <use xlink:href="#ma2f273d3ea" x="176.541587" y="125.543449" style="fill: #ee82ee; stroke: #ee82ee; stroke-linejoin: miter"/>
     <use xlink:href="#ma2f273d3ea" x="183.78834" y="125.88662" style="fill: #ee82ee; stroke: #ee82ee; stroke-linejoin: miter"/>
     <use xlink:href="#ma2f273d3ea" x="191.035094" y="126.263021" style="fill: #ee82ee; stroke: #ee82ee; stroke-linejoin: miter"/>
     <use xlink:href="#ma2f273d3ea" x="198.281847" y="126.672803" style="fill: #ee82ee; stroke: #ee82ee; stroke-linejoin: miter"/>
     <use xlink:href="#ma2f273d3ea" x="205.5286" y="127.11613" style="fill: #ee82ee; stroke: #ee82ee; stroke-linejoin: miter"/>
     <use xlink:href="#ma2f273d3ea" x="212.775353" y="127.593183" style="fill: #ee82ee; stroke: #ee82ee; stroke-linejoin: miter"/>
     <use xlink:href="#ma2f273d3ea" x="220.022107" y="128.104155" style="fill: #ee82ee; stroke: #ee82ee; stroke-linejoin: miter"/>
     <use xlink:href="#ma2f273d3ea" x="227.26886" y="128.649255" style="fill: #ee82ee; stroke: #ee82ee; stroke-linejoin: miter"/>
     <use xlink:href="#ma2f273d3ea" x="234.515613" y="129.228708" style="fill: #ee82ee; stroke: #ee82ee; stroke-linejoin: miter"/>
     <use xlink:href="#ma2f273d3ea" x="241.762366" y="129.842752" style="fill: #ee82ee; stroke: #ee82ee; stroke-linejoin: miter"/>
     <use xlink:href="#ma2f273d3ea" x="249.00912" y="130.491644" style="fill: #ee82ee; stroke: #ee82ee; stroke-linejoin: miter"/>
     <use xlink:href="#ma2f273d3ea" x="256.255873" y="131.175654" style="fill: #ee82ee; stroke: #ee82ee; stroke-linejoin: miter"/>
     <use xlink:href="#ma2f273d3ea" x="263.502626" y="131.895071" style="fill: #ee82ee; stroke: #ee82ee; stroke-linejoin: miter"/>
     <use xlink:href="#ma2f273d3ea" x="270.749379" y="132.6502" style="fill: #ee82ee; stroke: #ee82ee; stroke-linejoin: miter"/>
     <use xlink:href="#ma2f273d3ea" x="277.996133" y="133.441363" style="fill: #ee82ee; stroke: #ee82ee; stroke-linejoin: miter"/>
     <use xlink:href="#ma2f273d3ea" x="285.242886" y="134.268902" style="fill: #ee82ee; stroke: #ee82ee; stroke-linejoin: miter"/>
     <use xlink:href="#ma2f273d3ea" x="292.489639" y="135.133176" style="fill: #ee82ee; stroke: #ee82ee; stroke-linejoin: miter"/>
     <use xlink:href="#ma2f273d3ea" x="299.736392" y="136.034563" style="fill: #ee82ee; stroke: #ee82ee; stroke-linejoin: miter"/>
     <use xlink:href="#ma2f273d3ea" x="306.983146" y="136.973462" style="fill: #ee82ee; stroke: #ee82ee; stroke-linejoin: miter"/>
     <use xlink:href="#ma2f273d3ea" x="314.229899" y="137.950291" style="fill: #ee82ee; stroke: #ee82ee; stroke-linejoin: miter"/>
     <use xlink:href="#ma2f273d3ea" x="321.476652" y="138.96549" style="fill: #ee82ee; stroke: #ee82ee; stroke-linejoin: miter"/>
     <use xlink:href="#ma2f273d3ea" x="328.723405" y="140.019519" style="fill: #ee82ee; stroke: #ee82ee; stroke-linejoin: miter"/>
     <use xlink:href="#ma2f273d3ea" x="335.970159" y="141.112862" style="fill: #ee82ee; stroke: #ee82ee; stroke-linejoin: miter"/>
     <use xlink:href="#ma2f273d3ea" x="343.216912" y="142.246026" style="fill: #ee82ee; stroke: #ee82ee; stroke-linejoin: miter"/>
     <use xlink:href="#ma2f273d3ea" x="350.463665" y="143.419541" style="fill: #ee82ee; stroke: #ee82ee; stroke-linejoin: miter"/>
     <use xlink:href="#ma2f273d3ea" x="357.710418" y="144.633967" style="fill: #ee82ee; stroke: #ee82ee; stroke-linejoin: miter"/>
     <use xlink:href="#ma2f273d3ea" x="364.957172" y="145.889885" style="fill: #ee82ee; stroke: #ee82ee; stroke-linejoin: miter"/>
     <use xlink:href="#ma2f273d3ea" x="372.203925" y="147.187906" style="fill: #ee82ee; stroke: #ee82ee; stroke-linejoin: miter"/>
     <use xlink:href="#ma2f273d3ea" x="379.450678" y="148.528668" style="fill: #ee82ee; stroke: #ee82ee; stroke-linejoin: miter"/>
     <use xlink:href="#ma2f273d3ea" x="386.697431" y="149.912835" style="fill: #ee82ee; stroke: #ee82ee; stroke-linejoin: miter"/>
     <use xlink:href="#ma2f273d3ea" x="393.944185" y="151.341106" style="fill: #ee82ee; stroke: #ee82ee; stroke-linejoin: miter"/>
     <use xlink:href="#ma2f273d3ea" x="401.190938" y="152.814211" style="fill: #ee82ee; stroke: #ee82ee; stroke-linejoin: miter"/>
     <use xlink:href="#ma2f273d3ea" x="408.437691" y="154.332913" style="fill: #ee82ee; stroke: #ee82ee; stroke-linejoin: miter"/>
     <use xlink:href="#ma2f273d3ea" x="415.684444" y="155.898011" style="fill: #ee82ee; stroke: #ee82ee; stroke-linejoin: miter"/>
     <use xlink:href="#ma2f273d3ea" x="422.931198" y="157.51034" style="fill: #ee82ee; stroke: #ee82ee; stroke-linejoin: miter"/>
     <use xlink:href="#ma2f273d3ea" x="430.177951" y="159.170773" style="fill: #ee82ee; stroke: #ee82ee; stroke-linejoin: miter"/>
     <use xlink:href="#ma2f273d3ea" x="437.424704" y="160.880225" style="fill: #ee82ee; stroke: #ee82ee; stroke-linejoin: miter"/>
     <use xlink:href="#ma2f273d3ea" x="444.671457" y="162.639648" style="fill: #ee82ee; stroke: #ee82ee; stroke-linejoin: miter"/>
     <use xlink:href="#ma2f273d3ea" x="451.918211" y="164.45004" style="fill: #ee82ee; stroke: #ee82ee; stroke-linejoin: miter"/>
     <use xlink:href="#ma2f273d3ea" x="459.164964" y="166.312439" style="fill: #ee82ee; stroke: #ee82ee; stroke-linejoin: miter"/>
     <use xlink:href="#ma2f273d3ea" x="466.411717" y="168.227936" style="fill: #ee82ee; stroke: #ee82ee; stroke-linejoin: miter"/>
     <use xlink:href="#ma2f273d3ea" x="473.65847" y="170.197677" style="fill: #ee82ee; stroke: #ee82ee; stroke-linejoin: miter"/>
     <use xlink:href="#ma2f273d3ea" x="480.905224" y="172.222859" style="fill: #ee82ee; stroke: #ee82ee; stroke-linejoin: miter"/>
     <use xlink:href="#ma2f273d3ea" x="488.151977" y="174.304739" style="fill: #ee82ee; stroke: #ee82ee; stroke-linejoin: miter"/>
     <use xlink:href="#ma2f273d3ea" x="495.39873" y="176.444624" style="fill: #ee82ee; stroke: #ee82ee; stroke-linejoin: miter"/>
     <use xlink:href="#ma2f273d3ea" x="502.645483" y="178.643885" style="fill: #ee82ee; stroke: #ee82ee; stroke-linejoin: miter"/>
     <use xlink:href="#ma2f273d3ea" x="509.892237" y="180.903958" style="fill: #ee82ee; stroke: #ee82ee; stroke-linejoin: miter"/>
     <use xlink:href="#ma2f273d3ea" x="517.13899" y="183.226349" style="fill: #ee82ee; stroke: #ee82ee; stroke-linejoin: miter"/>
     <use xlink:href="#ma2f273d3ea" x="524.385743" y="185.612642" style="fill: #ee82ee; stroke: #ee82ee; stroke-linejoin: miter"/>
     <use xlink:href="#ma2f273d3ea" x="531.632496" y="188.064493" style="fill: #ee82ee; stroke: #ee82ee; stroke-linejoin: miter"/>
     <use xlink:href="#ma2f273d3ea" x="538.87925" y="190.58364" style="fill: #ee82ee; stroke: #ee82ee; stroke-linejoin: miter"/>
     <use xlink:href="#ma2f273d3ea" x="546.126003" y="193.171908" style="fill: #ee82ee; stroke: #ee82ee; stroke-linejoin: miter"/>
     <use xlink:href="#ma2f273d3ea" x="553.372756" y="195.831211" style="fill: #ee82ee; stroke: #ee82ee; stroke-linejoin: miter"/>
     <use xlink:href="#ma2f273d3ea" x="560.619509" y="198.563561" style="fill: #ee82ee; stroke: #ee82ee; stroke-linejoin: miter"/>
     <use xlink:href="#ma2f273d3ea" x="567.866263" y="201.371071" style="fill: #ee82ee; stroke: #ee82ee; stroke-linejoin: miter"/>
     <use xlink:href="#ma2f273d3ea" x="575.113016" y="204.255965" style="fill: #ee82ee; stroke: #ee82ee; stroke-linejoin: miter"/>
     <use xlink:href="#ma2f273d3ea" x="582.359769" y="207.220583" style="fill: #ee82ee; stroke: #ee82ee; stroke-linejoin: miter"/>
     <use xlink:href="#ma2f273d3ea" x="589.606522" y="210.267385" style="fill: #ee82ee; stroke: #ee82ee; stroke-linejoin: miter"/>
     <use xlink:href="#ma2f273d3ea" x="596.853275" y="213.398962" style="fill: #ee82ee; stroke: #ee82ee; stroke-linejoin: miter"/>
     <use xlink:href="#ma2f273d3ea" x="604.100029" y="216.618044" style="fill: #ee82ee; stroke: #ee82ee; stroke-linejoin: miter"/>
     <use xlink:href="#ma2f273d3ea" x="611.346782" y="219.927509" style="fill: #ee82ee; stroke: #ee82ee; stroke-linejoin: miter"/>
     <use xlink:href="#ma2f273d3ea" x="618.593535" y="223.330394" style="fill: #ee82ee; stroke: #ee82ee; stroke-linejoin: miter"/>
    </g>
   </g>
   <g id="line2d_16">
    <path d="M 85.957172 123.915789 
L 643.957172 123.915789 
" clip-path="url(#pb239aa808a)" style="fill: none; stroke: #808080; stroke-width: 1.5; stroke-linecap: square"/>
   </g>
   <g id="line2d_17">
    <path d="M 85.957172 26.652632 
L 643.957172 26.652632 
" clip-path="url(#pb239aa808a)" style="fill: none; stroke: #808080; stroke-width: 1.5; stroke-linecap: square"/>
   </g>
   <g id="line2d_18">
    <path d="M 85.957172 221.178947 
L 643.957172 221.178947 
" clip-path="url(#pb239aa808a)" style="fill: none; stroke: #808080; stroke-width: 1.5; stroke-linecap: square"/>
   </g>
   <g id="patch_3">
    <path d="M 85.957172 561.6 
L 85.957172 7.2 
" style="fill: none; stroke: #000000; stroke-width: 0.8; stroke-linejoin: miter; stroke-linecap: square"/>
   </g>
   <g id="patch_4">
    <path d="M 643.957172 561.6 
L 643.957172 7.2 
" style="fill: none; stroke: #000000; stroke-width: 0.8; stroke-linejoin: miter; stroke-linecap: square"/>
   </g>
   <g id="patch_5">
    <path d="M 85.957172 561.6 
L 643.957172 561.6 
" style="fill: none; stroke: #000000; stroke-width: 0.8; stroke-linejoin: miter; stroke-linecap: square"/>
   </g>
   <g id="patch_6">
    <path d="M 85.957172 7.2 
L 643.957172 7.2 
" style="fill: none; stroke: #000000; stroke-width: 0.8; stroke-linejoin: miter; stroke-linecap: square"/>
   </g>
   <g id="text_14">
    <!-- (b) -->
    <g transform="translate(113.857172 73.728) scale(0.32 -0.32)">
     <defs>
      <path id="CMR17-28" d="M 1958 -1562 
C 1958 -1556 1958 -1543 1939 -1524 
C 1645 -1223 858 -403 858 1596 
C 858 3595 1632 4408 1946 4729 
C 1946 4735 1958 4748 1958 4767 
C 1958 4787 1939 4800 1914 4800 
C 1843 4800 1299 4325 986 3620 
C 666 2909 576 2218 576 1603 
C 576 1141 621 360 1005 -467 
C 1312 -1133 1837 -1600 1914 -1600 
C 1946 -1600 1958 -1588 1958 -1562 
z
" transform="scale(0.015625)"/>
      <path id="CMR17-62" d="M 960 4416 
L 198 4345 
L 198 4179 
C 576 4179 634 4141 634 3843 
L 634 -13 
L 749 -13 
L 934 445 
C 1120 141 1395 -64 1766 -64 
C 2406 -64 3053 503 3053 1382 
C 3053 2209 2477 2816 1830 2816 
C 1434 2816 1152 2603 960 2351 
L 960 4416 
z
M 973 2022 
C 973 2138 973 2157 1062 2293 
C 1312 2681 1670 2713 1792 2713 
C 1984 2713 2643 2610 2643 1388 
C 2643 109 1888 38 1734 38 
C 1536 38 1248 115 1043 490 
C 973 613 973 626 973 742 
L 973 2022 
z
" transform="scale(0.015625)"/>
      <path id="CMR17-29" d="M 1683 1596 
C 1683 2057 1638 2839 1254 3665 
C 947 4332 422 4800 346 4800 
C 326 4800 301 4793 301 4761 
C 301 4748 307 4742 314 4729 
C 621 4408 1402 3595 1402 1603 
C 1402 -396 627 -1210 314 -1530 
C 307 -1543 301 -1549 301 -1562 
C 301 -1594 326 -1600 346 -1600 
C 416 -1600 960 -1127 1274 -422 
C 1594 289 1683 981 1683 1596 
z
" transform="scale(0.015625)"/>
     </defs>
     <use xlink:href="#CMR17-28" transform="scale(0.996264)"/>
     <use xlink:href="#CMR17-62" transform="translate(35.280768 0) scale(0.996264)"/>
     <use xlink:href="#CMR17-29" transform="translate(86.176138 0) scale(0.996264)"/>
    </g>
   </g>
   <g id="legend_1">
    <g id="patch_7">
     <path d="M 108.357172 545.6 
L 326.041515 545.6 
Q 332.441515 545.6 332.441515 539.2 
L 332.441515 353.449667 
Q 332.441515 347.049667 326.041515 347.049667 
L 108.357172 347.049667 
Q 101.957172 347.049667 101.957172 353.449667 
L 101.957172 539.2 
Q 101.957172 545.6 108.357172 545.6 
z
" style="fill: #ffffff; opacity: 0.8; stroke: #cccccc; stroke-linejoin: miter"/>
    </g>
    <g id="line2d_19">
     <path d="M 114.757172 371.049667 
L 146.757172 371.049667 
L 178.757172 371.049667 
" style="fill: none; stroke-dasharray: 5.55,2.4; stroke-dashoffset: 0; stroke: #0000ff; stroke-width: 1.5"/>
    </g>
    <g id="text_15">
     <!-- $\Delta\mathcal{N}_g$ -->
     <g transform="translate(204.357172 382.249667) scale(0.32 -0.32)">
      <defs>
       <path id="CMMI12-67" d="M 2163 811 
C 2138 708 2125 683 2042 587 
C 1779 249 1510 128 1312 128 
C 1101 128 902 293 902 734 
C 902 1072 1094 1787 1235 2075 
C 1421 2432 1709 2687 1978 2687 
C 2400 2687 2483 2164 2483 2126 
L 2464 2036 
L 2163 811 
z
M 2560 2394 
C 2477 2579 2298 2816 1978 2816 
C 1280 2816 486 1941 486 989 
C 486 325 890 0 1299 0 
C 1638 0 1939 268 2054 396 
L 1914 -176 
C 1824 -520 1786 -677 1555 -896 
C 1293 -1152 1050 -1152 909 -1152 
C 717 -1152 557 -1140 397 -1090 
C 602 -1034 653 -858 653 -789 
C 653 -689 576 -589 435 -589 
C 282 -589 115 -714 115 -921 
C 115 -1178 378 -1280 922 -1280 
C 1747 -1280 2176 -758 2259 -420 
L 2970 2426 
C 2989 2502 2989 2515 2989 2528 
C 2989 2617 2918 2688 2822 2688 
C 2669 2688 2579 2560 2560 2388 
L 2560 2394 
z
" transform="scale(0.015625)"/>
      </defs>
      <use xlink:href="#CMR17-1" transform="scale(0.996264)"/>
      <use xlink:href="#CMSY10-4e" transform="translate(76.91959 0) scale(0.996264)"/>
      <use xlink:href="#CMMI12-67" transform="translate(158.662128 -14.943915) scale(0.697382)"/>
     </g>
    </g>
    <g id="line2d_20">
     <path d="M 114.757172 418.570964 
L 146.757172 418.570964 
L 178.757172 418.570964 
" style="fill: none; stroke: #ff0000; stroke-width: 1.5; stroke-linecap: square"/>
    </g>
    <g id="text_16">
     <!-- $\Delta\mathcal{N}_e$ -->
     <g transform="translate(204.357172 429.770964) scale(0.32 -0.32)">
      <defs>
       <path id="CMMI12-65" d="M 1146 1472 
C 1318 1472 1754 1484 2061 1600 
C 2547 1786 2592 2160 2592 2275 
C 2592 2559 2349 2816 1926 2816 
C 1254 2816 288 2205 288 1066 
C 288 400 672 -64 1254 -64 
C 2125 -64 2675 609 2675 691 
C 2675 729 2637 761 2611 761 
C 2592 761 2586 755 2528 698 
C 2118 159 1510 64 1267 64 
C 902 64 710 349 710 818 
C 710 907 710 1066 806 1472 
L 1146 1472 
z
M 838 1600 
C 1114 2591 1722 2687 1926 2687 
C 2208 2687 2400 2520 2400 2275 
C 2400 1600 1376 1600 1107 1600 
L 838 1600 
z
" transform="scale(0.015625)"/>
      </defs>
      <use xlink:href="#CMR17-1" transform="scale(0.996264)"/>
      <use xlink:href="#CMSY10-4e" transform="translate(76.91959 0) scale(0.996264)"/>
      <use xlink:href="#CMMI12-65" transform="translate(158.662128 -14.943915) scale(0.697382)"/>
     </g>
    </g>
    <g id="line2d_21">
     <g>
      <use xlink:href="#m0714cd89f9" x="146.757172" y="464.653619" style="fill: #1e90ff; stroke: #1e90ff; stroke-linejoin: miter"/>
     </g>
    </g>
    <g id="text_17">
     <!-- $\Delta{\cal N}_g(\omega_0)$ -->
     <g transform="translate(204.357172 475.853619) scale(0.32 -0.32)">
      <defs>
       <path id="CMMI12-21" d="M 3802 2406 
C 3802 2592 3750 2828 3526 2828 
C 3398 2828 3251 2668 3251 2540 
C 3251 2483 3277 2444 3328 2387 
C 3424 2278 3546 2105 3546 1804 
C 3546 1574 3405 1209 3302 1011 
C 3123 659 2829 358 2496 358 
C 2093 358 1939 614 1869 972 
C 1939 1139 2086 1555 2086 1721 
C 2086 1792 2061 1849 1978 1849 
C 1933 1849 1882 1824 1850 1772 
C 1760 1632 1677 1126 1683 992 
C 1562 755 1216 358 806 358 
C 378 358 262 736 262 1100 
C 262 1766 678 2348 794 2508 
C 858 2604 902 2668 902 2681 
C 902 2726 877 2796 819 2796 
C 717 2796 685 2713 634 2636 
C 307 2131 77 1420 77 806 
C 77 409 224 -64 704 -64 
C 1235 -64 1568 390 1702 633 
C 1754 275 1946 -64 2413 -64 
C 2899 -64 3206 364 3437 883 
C 3603 1254 3802 2054 3802 2406 
z
" transform="scale(0.015625)"/>
      </defs>
      <use xlink:href="#CMR17-1" transform="scale(0.996264)"/>
      <use xlink:href="#CMSY10-4e" transform="translate(76.91959 0) scale(0.996264)"/>
      <use xlink:href="#CMMI12-67" transform="translate(158.662128 -14.943915) scale(0.697382)"/>
      <use xlink:href="#CMR17-28" transform="translate(194.359941 0) scale(0.996264)"/>
      <use xlink:href="#CMMI12-21" transform="translate(229.640709 0) scale(0.996264)"/>
      <use xlink:href="#CMR17-30" transform="translate(290.384462 -14.943915) scale(0.697382)"/>
      <use xlink:href="#CMR17-29" transform="translate(322.865776 0) scale(0.996264)"/>
     </g>
    </g>
    <g id="line2d_22">
     <g>
      <use xlink:href="#ma2f273d3ea" x="146.757172" y="513.656552" style="fill: #ee82ee; stroke: #ee82ee; stroke-linejoin: miter"/>
     </g>
    </g>
    <g id="text_18">
     <!-- $\Delta{\cal N}_e(\omega_0)$ -->
     <g transform="translate(204.357172 524.856552) scale(0.32 -0.32)">
      <use xlink:href="#CMR17-1" transform="scale(0.996264)"/>
      <use xlink:href="#CMSY10-4e" transform="translate(76.91959 0) scale(0.996264)"/>
      <use xlink:href="#CMMI12-65" transform="translate(158.662128 -14.943915) scale(0.697382)"/>
      <use xlink:href="#CMR17-28" transform="translate(190.808516 0) scale(0.996264)"/>
      <use xlink:href="#CMMI12-21" transform="translate(226.089284 0) scale(0.996264)"/>
      <use xlink:href="#CMR17-30" transform="translate(286.833037 -14.943915) scale(0.697382)"/>
      <use xlink:href="#CMR17-29" transform="translate(319.314351 0) scale(0.996264)"/>
     </g>
    </g>
   </g>
  </g>
 </g>
 <defs>
  <clipPath id="pb239aa808a">
   <rect x="85.957172" y="7.2" width="558" height="554.4"/>
  </clipPath>
 </defs>
</svg>
