<?xml version="1.0" encoding="utf-8" standalone="no"?>
<!DOCTYPE svg PUBLIC "-//W3C//DTD SVG 1.1//EN"
  "http://www.w3.org/Graphics/SVG/1.1/DTD/svg11.dtd">
<svg xmlns:xlink="http://www.w3.org/1999/xlink" width="631.933955pt" height="540.210279pt" viewBox="0 0 631.933955 540.210279" xmlns="http://www.w3.org/2000/svg" version="1.1">
 <metadata>
  <rdf:RDF xmlns:dc="http://purl.org/dc/elements/1.1/" xmlns:cc="http://creativecommons.org/ns#" xmlns:rdf="http://www.w3.org/1999/02/22-rdf-syntax-ns#">
   <cc:Work>
    <dc:type rdf:resource="http://purl.org/dc/dcmitype/StillImage"/>
    <dc:date>2023-08-18T12:06:24.547483</dc:date>
    <dc:format>image/svg+xml</dc:format>
    <dc:creator>
     <cc:Agent>
      <dc:title>Matplotlib v3.7.1, https://matplotlib.org/</dc:title>
     </cc:Agent>
    </dc:creator>
   </cc:Work>
  </rdf:RDF>
 </metadata>
 <defs>
  <style type="text/css">*{stroke-linejoin: round; stroke-linecap: butt}</style>
 </defs>
 <g id="figure_1">
  <g id="patch_1">
   <path d="M 0 540.210279 
L 631.933955 540.210279 
L 631.933955 0 
L 0 0 
z
" style="fill: #ffffff"/>
  </g>
  <g id="axes_1">
   <g id="patch_2">
    <path d="M 66.733955 461.789603 
L 624.733955 461.789603 
L 624.733955 18.269603 
L 66.733955 18.269603 
z
" style="fill: #ffffff"/>
   </g>
   <g id="matplotlib.axis_1">
    <g id="xtick_1">
     <g id="line2d_1">
      <defs>
       <path id="m0f4674a87d" d="M 0 0 
L 0 3.5 
" style="stroke: #000000; stroke-width: 0.8"/>
      </defs>
      <g>
       <use xlink:href="#m0f4674a87d" x="84.850838" y="461.789603" style="stroke: #000000; stroke-width: 0.8"/>
      </g>
     </g>
     <g id="text_1">
      <!-- $\mathdefault{0.00}$ -->
      <g transform="translate(58.58386 490.92881) scale(0.32 -0.32)">
       <defs>
        <path id="CMR17-30" d="M 2688 2038 
C 2688 2430 2682 3099 2413 3613 
C 2176 4063 1798 4224 1466 4224 
C 1158 4224 768 4082 525 3620 
C 269 3137 243 2539 243 2038 
C 243 1671 250 1112 448 623 
C 723 -39 1216 -128 1466 -128 
C 1760 -128 2208 -7 2470 604 
C 2662 1048 2688 1568 2688 2038 
z
M 1466 -26 
C 1056 -26 813 328 723 816 
C 653 1196 653 1749 653 2109 
C 653 2604 653 3015 736 3407 
C 858 3954 1216 4121 1466 4121 
C 1728 4121 2067 3947 2189 3420 
C 2272 3054 2278 2623 2278 2109 
C 2278 1691 2278 1176 2202 797 
C 2067 96 1690 -26 1466 -26 
z
" transform="scale(0.015625)"/>
        <path id="CMMI12-3a" d="M 1178 307 
C 1178 492 1024 620 870 620 
C 685 620 557 467 557 313 
C 557 128 710 0 864 0 
C 1050 0 1178 153 1178 307 
z
" transform="scale(0.015625)"/>
       </defs>
       <use xlink:href="#CMR17-30" transform="scale(0.996264)"/>
       <use xlink:href="#CMMI12-3a" transform="translate(45.690477 0) scale(0.996264)"/>
       <use xlink:href="#CMR17-30" transform="translate(72.787654 0) scale(0.996264)"/>
       <use xlink:href="#CMR17-30" transform="translate(118.478131 0) scale(0.996264)"/>
      </g>
     </g>
    </g>
    <g id="xtick_2">
     <g id="line2d_2">
      <g>
       <use xlink:href="#m0f4674a87d" x="211.66902" y="461.789603" style="stroke: #000000; stroke-width: 0.8"/>
      </g>
     </g>
     <g id="text_2">
      <!-- $\mathdefault{0.25}$ -->
      <g transform="translate(185.402042 490.92881) scale(0.32 -0.32)">
       <defs>
        <path id="CMR17-32" d="M 2669 990 
L 2554 990 
C 2490 537 2438 460 2413 422 
C 2381 371 1920 371 1830 371 
L 602 371 
C 832 620 1280 1073 1824 1596 
C 2214 1966 2669 2400 2669 3033 
C 2669 3788 2067 4224 1395 4224 
C 691 4224 262 3603 262 3027 
C 262 2777 448 2745 525 2745 
C 589 2745 781 2783 781 3007 
C 781 3206 614 3264 525 3264 
C 486 3264 448 3257 422 3244 
C 544 3788 915 4057 1306 4057 
C 1862 4057 2227 3616 2227 3033 
C 2227 2477 1901 1998 1536 1583 
L 262 147 
L 262 0 
L 2515 0 
L 2669 990 
z
" transform="scale(0.015625)"/>
        <path id="CMR17-35" d="M 730 3750 
C 794 3724 1056 3641 1325 3641 
C 1920 3641 2246 3961 2432 4140 
C 2432 4191 2432 4224 2394 4224 
C 2387 4224 2374 4224 2323 4198 
C 2099 4102 1837 4032 1517 4032 
C 1325 4032 1037 4055 723 4191 
C 653 4224 640 4224 634 4224 
C 602 4224 595 4217 595 4090 
L 595 2231 
C 595 2113 595 2080 659 2080 
C 691 2080 704 2093 736 2139 
C 941 2435 1222 2560 1542 2560 
C 1766 2560 2246 2415 2246 1293 
C 2246 1087 2246 716 2054 422 
C 1894 159 1645 25 1370 25 
C 947 25 518 319 403 812 
C 429 806 480 793 506 793 
C 589 793 749 838 749 1036 
C 749 1209 627 1280 506 1280 
C 358 1280 262 1190 262 1011 
C 262 454 704 -128 1382 -128 
C 2042 -128 2669 441 2669 1267 
C 2669 2054 2170 2662 1549 2662 
C 1222 2662 947 2540 730 2304 
L 730 3750 
z
" transform="scale(0.015625)"/>
       </defs>
       <use xlink:href="#CMR17-30" transform="scale(0.996264)"/>
       <use xlink:href="#CMMI12-3a" transform="translate(45.690477 0) scale(0.996264)"/>
       <use xlink:href="#CMR17-32" transform="translate(72.787654 0) scale(0.996264)"/>
       <use xlink:href="#CMR17-35" transform="translate(118.478131 0) scale(0.996264)"/>
      </g>
     </g>
    </g>
    <g id="xtick_3">
     <g id="line2d_3">
      <g>
       <use xlink:href="#m0f4674a87d" x="338.487201" y="461.789603" style="stroke: #000000; stroke-width: 0.8"/>
      </g>
     </g>
     <g id="text_3">
      <!-- $\mathdefault{0.50}$ -->
      <g transform="translate(312.220224 490.92881) scale(0.32 -0.32)">
       <use xlink:href="#CMR17-30" transform="scale(0.996264)"/>
       <use xlink:href="#CMMI12-3a" transform="translate(45.690477 0) scale(0.996264)"/>
       <use xlink:href="#CMR17-35" transform="translate(72.787654 0) scale(0.996264)"/>
       <use xlink:href="#CMR17-30" transform="translate(118.478131 0) scale(0.996264)"/>
      </g>
     </g>
    </g>
    <g id="xtick_4">
     <g id="line2d_4">
      <g>
       <use xlink:href="#m0f4674a87d" x="465.305383" y="461.789603" style="stroke: #000000; stroke-width: 0.8"/>
      </g>
     </g>
     <g id="text_4">
      <!-- $\mathdefault{0.75}$ -->
      <g transform="translate(439.038406 490.92881) scale(0.32 -0.32)">
       <defs>
        <path id="CMR17-37" d="M 2886 3955 
L 2886 4096 
L 1382 4096 
C 634 4096 621 4166 595 4288 
L 480 4288 
L 294 3104 
L 410 3104 
C 429 3226 474 3552 550 3673 
C 589 3724 1062 3724 1171 3724 
L 2579 3724 
L 1869 2670 
C 1395 1961 1069 1003 1069 166 
C 1069 89 1069 -128 1299 -128 
C 1530 -128 1530 89 1530 172 
L 1530 466 
C 1530 1514 1709 2204 2003 2644 
L 2886 3955 
z
" transform="scale(0.015625)"/>
       </defs>
       <use xlink:href="#CMR17-30" transform="scale(0.996264)"/>
       <use xlink:href="#CMMI12-3a" transform="translate(45.690477 0) scale(0.996264)"/>
       <use xlink:href="#CMR17-37" transform="translate(72.787654 0) scale(0.996264)"/>
       <use xlink:href="#CMR17-35" transform="translate(118.478131 0) scale(0.996264)"/>
      </g>
     </g>
    </g>
    <g id="xtick_5">
     <g id="line2d_5">
      <g>
       <use xlink:href="#m0f4674a87d" x="592.123565" y="461.789603" style="stroke: #000000; stroke-width: 0.8"/>
      </g>
     </g>
     <g id="text_5">
      <!-- $\mathdefault{1.00}$ -->
      <g transform="translate(565.856588 490.92881) scale(0.32 -0.32)">
       <defs>
        <path id="CMR17-31" d="M 1702 4083 
C 1702 4217 1696 4224 1606 4224 
C 1357 3927 979 3833 621 3820 
C 602 3820 570 3820 563 3808 
C 557 3795 557 3782 557 3648 
C 755 3648 1088 3686 1344 3839 
L 1344 467 
C 1344 243 1331 166 781 166 
L 589 166 
L 589 0 
C 896 6 1216 12 1523 12 
C 1830 12 2150 6 2458 0 
L 2458 166 
L 2266 166 
C 1715 166 1702 236 1702 467 
L 1702 4083 
z
" transform="scale(0.015625)"/>
       </defs>
       <use xlink:href="#CMR17-31" transform="scale(0.996264)"/>
       <use xlink:href="#CMMI12-3a" transform="translate(45.690477 0) scale(0.996264)"/>
       <use xlink:href="#CMR17-30" transform="translate(72.787654 0) scale(0.996264)"/>
       <use xlink:href="#CMR17-30" transform="translate(118.478131 0) scale(0.996264)"/>
      </g>
     </g>
    </g>
    <g id="text_6">
     <!-- $\theta/\pi$ -->
     <g transform="translate(321.369085 525.040167) scale(0.32 -0.32)">
      <defs>
       <path id="CMMI12-12" d="M 2835 3200 
C 2835 3849 2630 4480 2106 4480 
C 1210 4480 256 2615 256 1215 
C 256 922 320 -64 992 -64 
C 1862 -64 2835 1755 2835 3200 
z
M 896 2304 
C 992 2679 1126 3213 1382 3665 
C 1594 4046 1818 4351 2099 4351 
C 2310 4351 2451 4173 2451 3563 
C 2451 3334 2432 3016 2246 2304 
L 896 2304 
z
M 2202 2112 
C 2042 1488 1907 1088 1677 687 
C 1491 362 1267 64 998 64 
C 800 64 640 216 640 846 
C 640 1259 742 1692 845 2112 
L 2202 2112 
z
" transform="scale(0.015625)"/>
       <path id="CMMI12-3d" d="M 2746 4563 
C 2746 4569 2784 4665 2784 4678 
C 2784 4755 2720 4800 2669 4800 
C 2637 4800 2579 4800 2528 4659 
L 384 -1364 
C 384 -1370 346 -1466 346 -1479 
C 346 -1556 410 -1600 461 -1600 
C 499 -1600 557 -1594 602 -1460 
L 2746 4563 
z
" transform="scale(0.015625)"/>
       <path id="CMMI12-19" d="M 1658 2406 
L 2381 2406 
C 2208 1691 2099 1225 2099 715 
C 2099 625 2099 -64 2362 -64 
C 2496 -64 2611 57 2611 166 
C 2611 198 2611 210 2566 306 
C 2394 746 2394 1295 2394 1340 
C 2394 1378 2394 1832 2528 2406 
L 3245 2406 
C 3328 2406 3539 2406 3539 2611 
C 3539 2752 3418 2752 3302 2752 
L 1197 2752 
C 1050 2752 832 2752 538 2438 
C 371 2253 166 1915 166 1876 
C 166 1838 198 1825 237 1825 
C 282 1825 288 1844 320 1883 
C 653 2406 986 2406 1146 2406 
L 1510 2406 
C 1370 1927 1210 1372 685 255 
C 634 153 634 140 634 102 
C 634 -32 749 -64 806 -64 
C 992 -64 1043 102 1120 370 
C 1222 695 1222 708 1286 964 
L 1658 2406 
z
" transform="scale(0.015625)"/>
      </defs>
      <use xlink:href="#CMMI12-12" transform="scale(0.996264)"/>
      <use xlink:href="#CMMI12-3d" transform="translate(48.169508 0) scale(0.996264)"/>
      <use xlink:href="#CMMI12-19" transform="translate(96.944427 0) scale(0.996264)"/>
     </g>
    </g>
   </g>
   <g id="matplotlib.axis_2">
    <g id="ytick_1">
     <g id="line2d_6">
      <defs>
       <path id="m0b1794bb03" d="M 0 0 
L -3.5 0 
" style="stroke: #000000; stroke-width: 0.8"/>
      </defs>
      <g>
       <use xlink:href="#m0b1794bb03" x="66.733955" y="435.700192" style="stroke: #000000; stroke-width: 0.8"/>
      </g>
     </g>
     <g id="text_7">
      <!-- $\mathdefault{0.00}$ -->
      <g transform="translate(7.2 446.769795) scale(0.32 -0.32)">
       <use xlink:href="#CMR17-30" transform="scale(0.996264)"/>
       <use xlink:href="#CMMI12-3a" transform="translate(45.690477 0) scale(0.996264)"/>
       <use xlink:href="#CMR17-30" transform="translate(72.787654 0) scale(0.996264)"/>
       <use xlink:href="#CMR17-30" transform="translate(118.478131 0) scale(0.996264)"/>
      </g>
     </g>
    </g>
    <g id="ytick_2">
     <g id="line2d_7">
      <g>
       <use xlink:href="#m0b1794bb03" x="66.733955" y="331.342545" style="stroke: #000000; stroke-width: 0.8"/>
      </g>
     </g>
     <g id="text_8">
      <!-- $\mathdefault{0.02}$ -->
      <g transform="translate(7.2 342.412148) scale(0.32 -0.32)">
       <use xlink:href="#CMR17-30" transform="scale(0.996264)"/>
       <use xlink:href="#CMMI12-3a" transform="translate(45.690477 0) scale(0.996264)"/>
       <use xlink:href="#CMR17-30" transform="translate(72.787654 0) scale(0.996264)"/>
       <use xlink:href="#CMR17-32" transform="translate(118.478131 0) scale(0.996264)"/>
      </g>
     </g>
    </g>
    <g id="ytick_3">
     <g id="line2d_8">
      <g>
       <use xlink:href="#m0b1794bb03" x="66.733955" y="226.984898" style="stroke: #000000; stroke-width: 0.8"/>
      </g>
     </g>
     <g id="text_9">
      <!-- $\mathdefault{0.04}$ -->
      <g transform="translate(7.2 238.054501) scale(0.32 -0.32)">
       <defs>
        <path id="CMR17-34" d="M 2150 4147 
C 2150 4281 2144 4288 2029 4288 
L 128 1254 
L 128 1088 
L 1779 1088 
L 1779 460 
C 1779 230 1766 166 1318 166 
L 1197 166 
L 1197 0 
C 1402 12 1747 12 1965 12 
C 2182 12 2528 12 2733 0 
L 2733 166 
L 2611 166 
C 2163 166 2150 230 2150 460 
L 2150 1088 
L 2803 1088 
L 2803 1254 
L 2150 1254 
L 2150 4147 
z
M 1798 3723 
L 1798 1254 
L 256 1254 
L 1798 3723 
z
" transform="scale(0.015625)"/>
       </defs>
       <use xlink:href="#CMR17-30" transform="scale(0.996264)"/>
       <use xlink:href="#CMMI12-3a" transform="translate(45.690477 0) scale(0.996264)"/>
       <use xlink:href="#CMR17-30" transform="translate(72.787654 0) scale(0.996264)"/>
       <use xlink:href="#CMR17-34" transform="translate(118.478131 0) scale(0.996264)"/>
      </g>
     </g>
    </g>
    <g id="ytick_4">
     <g id="line2d_9">
      <g>
       <use xlink:href="#m0b1794bb03" x="66.733955" y="122.627251" style="stroke: #000000; stroke-width: 0.8"/>
      </g>
     </g>
     <g id="text_10">
      <!-- $\mathdefault{0.06}$ -->
      <g transform="translate(7.2 133.696854) scale(0.32 -0.32)">
       <defs>
        <path id="CMR17-36" d="M 678 2198 
C 678 3712 1395 4076 1811 4076 
C 1946 4076 2272 4049 2400 3782 
C 2298 3782 2106 3782 2106 3558 
C 2106 3385 2246 3328 2336 3328 
C 2394 3328 2566 3353 2566 3571 
C 2566 3987 2246 4224 1805 4224 
C 1043 4224 243 3411 243 2011 
C 243 257 966 -128 1478 -128 
C 2099 -128 2688 431 2688 1295 
C 2688 2101 2170 2688 1517 2688 
C 1126 2688 838 2430 678 1979 
L 678 2198 
z
M 1478 25 
C 691 25 691 1212 691 1450 
C 691 1914 909 2585 1504 2585 
C 1613 2585 1926 2585 2138 2140 
C 2253 1889 2253 1624 2253 1302 
C 2253 954 2253 696 2118 438 
C 1978 173 1773 25 1478 25 
z
" transform="scale(0.015625)"/>
       </defs>
       <use xlink:href="#CMR17-30" transform="scale(0.996264)"/>
       <use xlink:href="#CMMI12-3a" transform="translate(45.690477 0) scale(0.996264)"/>
       <use xlink:href="#CMR17-30" transform="translate(72.787654 0) scale(0.996264)"/>
       <use xlink:href="#CMR17-36" transform="translate(118.478131 0) scale(0.996264)"/>
      </g>
     </g>
    </g>
    <g id="ytick_5">
     <g id="line2d_10">
      <g>
       <use xlink:href="#m0b1794bb03" x="66.733955" y="18.269603" style="stroke: #000000; stroke-width: 0.8"/>
      </g>
     </g>
     <g id="text_11">
      <!-- $\mathdefault{0.08}$ -->
      <g transform="translate(7.2 29.339207) scale(0.32 -0.32)">
       <defs>
        <path id="CMR17-38" d="M 1741 2289 
C 2144 2494 2554 2803 2554 3298 
C 2554 3884 1990 4224 1472 4224 
C 890 4224 378 3800 378 3215 
C 378 3054 416 2777 666 2533 
C 730 2469 998 2276 1171 2154 
C 883 2006 211 1652 211 945 
C 211 282 838 -128 1459 -128 
C 2144 -128 2720 366 2720 1022 
C 2720 1607 2330 1877 2074 2051 
L 1741 2289 
z
M 902 2855 
C 851 2887 595 3086 595 3388 
C 595 3781 998 4076 1459 4076 
C 1965 4076 2336 3716 2336 3298 
C 2336 2700 1670 2359 1638 2359 
C 1632 2359 1626 2359 1574 2398 
L 902 2855 
z
M 2080 1536 
C 2176 1466 2483 1253 2483 861 
C 2483 385 2010 25 1472 25 
C 890 25 448 443 448 951 
C 448 1459 838 1884 1280 2083 
L 2080 1536 
z
" transform="scale(0.015625)"/>
       </defs>
       <use xlink:href="#CMR17-30" transform="scale(0.996264)"/>
       <use xlink:href="#CMMI12-3a" transform="translate(45.690477 0) scale(0.996264)"/>
       <use xlink:href="#CMR17-30" transform="translate(72.787654 0) scale(0.996264)"/>
       <use xlink:href="#CMR17-38" transform="translate(118.478131 0) scale(0.996264)"/>
      </g>
     </g>
    </g>
   </g>
   <g id="line2d_11">
    <path d="M 92.097591 435.700209 
L 99.344344 435.700209 
L 106.591098 435.700209 
L 113.837851 435.700209 
L 121.084604 435.700209 
L 128.331357 435.700209 
L 135.578111 435.700209 
L 142.824864 435.700209 
L 150.071617 435.700209 
L 157.31837 435.700209 
L 164.565124 435.700209 
L 171.811877 435.700209 
L 179.05863 435.700209 
L 186.305383 435.700209 
L 193.552137 435.700209 
L 200.79889 435.700209 
L 208.045643 435.700209 
L 215.292396 435.700209 
L 222.53915 435.700209 
L 229.785903 435.700209 
L 237.032656 435.700209 
L 244.279409 435.700209 
L 251.526162 435.700209 
L 258.772916 435.700209 
L 266.019669 435.700209 
L 273.266422 435.700209 
L 280.513175 435.700209 
L 287.759929 435.700209 
L 295.006682 435.700209 
L 302.253435 435.700209 
L 309.500188 435.700209 
L 316.746942 435.700209 
L 323.993695 435.70021 
L 331.240448 435.70021 
L 338.487201 435.70021 
L 345.733955 435.70021 
L 352.980708 435.70021 
L 360.227461 435.70021 
L 367.474214 435.70021 
L 374.720968 435.70021 
L 381.967721 435.70021 
L 389.214474 435.70021 
L 396.461227 435.70021 
L 403.707981 435.70021 
L 410.954734 435.70021 
L 418.201487 435.70021 
L 425.44824 435.70021 
L 432.694994 435.700211 
L 439.941747 435.700211 
L 447.1885 435.700211 
L 454.435253 435.700211 
L 461.682007 435.700211 
L 468.92876 435.700211 
L 476.175513 435.700211 
L 483.422266 435.700211 
L 490.66902 435.700211 
L 497.915773 435.700212 
L 505.162526 435.700212 
L 512.409279 435.700212 
L 519.656033 435.700212 
L 526.902786 435.700212 
L 534.149539 435.700212 
L 541.396292 435.700212 
L 548.643046 435.700212 
L 555.889799 435.700213 
L 563.136552 435.700213 
L 570.383305 435.700213 
L 577.630059 435.700213 
L 584.876812 435.700213 
L 592.123565 435.700214 
L 599.370318 435.700214 
" clip-path="url(#p7ca36b0006)" style="fill: none; stroke: #ff0000; stroke-width: 1.5; stroke-linecap: square"/>
   </g>
   <g id="line2d_12">
    <path d="M 92.097591 435.700209 
L 99.344344 435.700209 
L 106.591098 435.700209 
L 113.837851 435.700209 
L 121.084604 435.700209 
L 128.331357 435.700209 
L 135.578111 435.700209 
L 142.824864 435.700209 
L 150.071617 435.700209 
L 157.31837 435.700209 
L 164.565124 435.700209 
L 171.811877 435.70021 
L 179.05863 435.70021 
L 186.305383 435.70021 
L 193.552137 435.70021 
L 200.79889 435.70021 
L 208.045643 435.700211 
L 215.292396 435.700211 
L 222.53915 435.700211 
L 229.785903 435.700211 
L 237.032656 435.700212 
L 244.279409 435.700212 
L 251.526162 435.700212 
L 258.772916 435.700213 
L 266.019669 435.700213 
L 273.266422 435.700214 
L 280.513175 435.700214 
L 287.759929 435.700215 
L 295.006682 435.700215 
L 302.253435 435.700216 
L 309.500188 435.700217 
L 316.746942 435.700217 
L 323.993695 435.700218 
L 331.240448 435.700219 
L 338.487201 435.70022 
L 345.733955 435.700221 
L 352.980708 435.700222 
L 360.227461 435.700224 
L 367.474214 435.700225 
L 374.720968 435.700226 
L 381.967721 435.700228 
L 389.214474 435.70023 
L 396.461227 435.700232 
L 403.707981 435.700233 
L 410.954734 435.700231 
L 418.201487 435.700213 
L 425.44824 435.700126 
L 432.694994 435.699783 
L 439.941747 435.69859 
L 447.1885 435.694822 
L 454.435253 435.68401 
L 461.682007 435.655419 
L 468.92876 435.58542 
L 476.175513 435.425795 
L 483.422266 435.08499 
L 490.66902 434.400221 
L 497.915773 433.093367 
L 505.162526 430.747041 
L 512.409279 426.696022 
L 519.656033 420.085288 
L 526.902786 409.656489 
L 534.149539 393.998522 
L 541.396292 371.517393 
L 548.643046 340.608983 
L 555.889799 300.181049 
L 563.136552 250.428275 
L 570.383305 193.697306 
L 577.630059 135.031104 
L 584.876812 81.970453 
L 592.123565 43.507046 
L 599.370318 26.679382 
" clip-path="url(#p7ca36b0006)" style="fill: none; stroke-dasharray: 5.55,2.4; stroke-dashoffset: 0; stroke: #0000ff; stroke-width: 1.5"/>
    <defs>
     <path id="m812a0af104" d="M -0 4.242641 
L 2.545584 0 
L 0 -4.242641 
L -2.545584 -0 
z
" style="stroke: #0000ff; stroke-linejoin: miter"/>
    </defs>
    <g clip-path="url(#p7ca36b0006)">
     <use xlink:href="#m812a0af104" x="92.097591" y="435.700209" style="fill: #0000ff; stroke: #0000ff; stroke-linejoin: miter"/>
     <use xlink:href="#m812a0af104" x="99.344344" y="435.700209" style="fill: #0000ff; stroke: #0000ff; stroke-linejoin: miter"/>
     <use xlink:href="#m812a0af104" x="106.591098" y="435.700209" style="fill: #0000ff; stroke: #0000ff; stroke-linejoin: miter"/>
     <use xlink:href="#m812a0af104" x="113.837851" y="435.700209" style="fill: #0000ff; stroke: #0000ff; stroke-linejoin: miter"/>
     <use xlink:href="#m812a0af104" x="121.084604" y="435.700209" style="fill: #0000ff; stroke: #0000ff; stroke-linejoin: miter"/>
     <use xlink:href="#m812a0af104" x="128.331357" y="435.700209" style="fill: #0000ff; stroke: #0000ff; stroke-linejoin: miter"/>
     <use xlink:href="#m812a0af104" x="135.578111" y="435.700209" style="fill: #0000ff; stroke: #0000ff; stroke-linejoin: miter"/>
     <use xlink:href="#m812a0af104" x="142.824864" y="435.700209" style="fill: #0000ff; stroke: #0000ff; stroke-linejoin: miter"/>
     <use xlink:href="#m812a0af104" x="150.071617" y="435.700209" style="fill: #0000ff; stroke: #0000ff; stroke-linejoin: miter"/>
     <use xlink:href="#m812a0af104" x="157.31837" y="435.700209" style="fill: #0000ff; stroke: #0000ff; stroke-linejoin: miter"/>
     <use xlink:href="#m812a0af104" x="164.565124" y="435.700209" style="fill: #0000ff; stroke: #0000ff; stroke-linejoin: miter"/>
     <use xlink:href="#m812a0af104" x="171.811877" y="435.70021" style="fill: #0000ff; stroke: #0000ff; stroke-linejoin: miter"/>
     <use xlink:href="#m812a0af104" x="179.05863" y="435.70021" style="fill: #0000ff; stroke: #0000ff; stroke-linejoin: miter"/>
     <use xlink:href="#m812a0af104" x="186.305383" y="435.70021" style="fill: #0000ff; stroke: #0000ff; stroke-linejoin: miter"/>
     <use xlink:href="#m812a0af104" x="193.552137" y="435.70021" style="fill: #0000ff; stroke: #0000ff; stroke-linejoin: miter"/>
     <use xlink:href="#m812a0af104" x="200.79889" y="435.70021" style="fill: #0000ff; stroke: #0000ff; stroke-linejoin: miter"/>
     <use xlink:href="#m812a0af104" x="208.045643" y="435.700211" style="fill: #0000ff; stroke: #0000ff; stroke-linejoin: miter"/>
     <use xlink:href="#m812a0af104" x="215.292396" y="435.700211" style="fill: #0000ff; stroke: #0000ff; stroke-linejoin: miter"/>
     <use xlink:href="#m812a0af104" x="222.53915" y="435.700211" style="fill: #0000ff; stroke: #0000ff; stroke-linejoin: miter"/>
     <use xlink:href="#m812a0af104" x="229.785903" y="435.700211" style="fill: #0000ff; stroke: #0000ff; stroke-linejoin: miter"/>
     <use xlink:href="#m812a0af104" x="237.032656" y="435.700212" style="fill: #0000ff; stroke: #0000ff; stroke-linejoin: miter"/>
     <use xlink:href="#m812a0af104" x="244.279409" y="435.700212" style="fill: #0000ff; stroke: #0000ff; stroke-linejoin: miter"/>
     <use xlink:href="#m812a0af104" x="251.526162" y="435.700212" style="fill: #0000ff; stroke: #0000ff; stroke-linejoin: miter"/>
     <use xlink:href="#m812a0af104" x="258.772916" y="435.700213" style="fill: #0000ff; stroke: #0000ff; stroke-linejoin: miter"/>
     <use xlink:href="#m812a0af104" x="266.019669" y="435.700213" style="fill: #0000ff; stroke: #0000ff; stroke-linejoin: miter"/>
     <use xlink:href="#m812a0af104" x="273.266422" y="435.700214" style="fill: #0000ff; stroke: #0000ff; stroke-linejoin: miter"/>
     <use xlink:href="#m812a0af104" x="280.513175" y="435.700214" style="fill: #0000ff; stroke: #0000ff; stroke-linejoin: miter"/>
     <use xlink:href="#m812a0af104" x="287.759929" y="435.700215" style="fill: #0000ff; stroke: #0000ff; stroke-linejoin: miter"/>
     <use xlink:href="#m812a0af104" x="295.006682" y="435.700215" style="fill: #0000ff; stroke: #0000ff; stroke-linejoin: miter"/>
     <use xlink:href="#m812a0af104" x="302.253435" y="435.700216" style="fill: #0000ff; stroke: #0000ff; stroke-linejoin: miter"/>
     <use xlink:href="#m812a0af104" x="309.500188" y="435.700217" style="fill: #0000ff; stroke: #0000ff; stroke-linejoin: miter"/>
     <use xlink:href="#m812a0af104" x="316.746942" y="435.700217" style="fill: #0000ff; stroke: #0000ff; stroke-linejoin: miter"/>
     <use xlink:href="#m812a0af104" x="323.993695" y="435.700218" style="fill: #0000ff; stroke: #0000ff; stroke-linejoin: miter"/>
     <use xlink:href="#m812a0af104" x="331.240448" y="435.700219" style="fill: #0000ff; stroke: #0000ff; stroke-linejoin: miter"/>
     <use xlink:href="#m812a0af104" x="338.487201" y="435.70022" style="fill: #0000ff; stroke: #0000ff; stroke-linejoin: miter"/>
     <use xlink:href="#m812a0af104" x="345.733955" y="435.700221" style="fill: #0000ff; stroke: #0000ff; stroke-linejoin: miter"/>
     <use xlink:href="#m812a0af104" x="352.980708" y="435.700222" style="fill: #0000ff; stroke: #0000ff; stroke-linejoin: miter"/>
     <use xlink:href="#m812a0af104" x="360.227461" y="435.700224" style="fill: #0000ff; stroke: #0000ff; stroke-linejoin: miter"/>
     <use xlink:href="#m812a0af104" x="367.474214" y="435.700225" style="fill: #0000ff; stroke: #0000ff; stroke-linejoin: miter"/>
     <use xlink:href="#m812a0af104" x="374.720968" y="435.700226" style="fill: #0000ff; stroke: #0000ff; stroke-linejoin: miter"/>
     <use xlink:href="#m812a0af104" x="381.967721" y="435.700228" style="fill: #0000ff; stroke: #0000ff; stroke-linejoin: miter"/>
     <use xlink:href="#m812a0af104" x="389.214474" y="435.70023" style="fill: #0000ff; stroke: #0000ff; stroke-linejoin: miter"/>
     <use xlink:href="#m812a0af104" x="396.461227" y="435.700232" style="fill: #0000ff; stroke: #0000ff; stroke-linejoin: miter"/>
     <use xlink:href="#m812a0af104" x="403.707981" y="435.700233" style="fill: #0000ff; stroke: #0000ff; stroke-linejoin: miter"/>
     <use xlink:href="#m812a0af104" x="410.954734" y="435.700231" style="fill: #0000ff; stroke: #0000ff; stroke-linejoin: miter"/>
     <use xlink:href="#m812a0af104" x="418.201487" y="435.700213" style="fill: #0000ff; stroke: #0000ff; stroke-linejoin: miter"/>
     <use xlink:href="#m812a0af104" x="425.44824" y="435.700126" style="fill: #0000ff; stroke: #0000ff; stroke-linejoin: miter"/>
     <use xlink:href="#m812a0af104" x="432.694994" y="435.699783" style="fill: #0000ff; stroke: #0000ff; stroke-linejoin: miter"/>
     <use xlink:href="#m812a0af104" x="439.941747" y="435.69859" style="fill: #0000ff; stroke: #0000ff; stroke-linejoin: miter"/>
     <use xlink:href="#m812a0af104" x="447.1885" y="435.694822" style="fill: #0000ff; stroke: #0000ff; stroke-linejoin: miter"/>
     <use xlink:href="#m812a0af104" x="454.435253" y="435.68401" style="fill: #0000ff; stroke: #0000ff; stroke-linejoin: miter"/>
     <use xlink:href="#m812a0af104" x="461.682007" y="435.655419" style="fill: #0000ff; stroke: #0000ff; stroke-linejoin: miter"/>
     <use xlink:href="#m812a0af104" x="468.92876" y="435.58542" style="fill: #0000ff; stroke: #0000ff; stroke-linejoin: miter"/>
     <use xlink:href="#m812a0af104" x="476.175513" y="435.425795" style="fill: #0000ff; stroke: #0000ff; stroke-linejoin: miter"/>
     <use xlink:href="#m812a0af104" x="483.422266" y="435.08499" style="fill: #0000ff; stroke: #0000ff; stroke-linejoin: miter"/>
     <use xlink:href="#m812a0af104" x="490.66902" y="434.400221" style="fill: #0000ff; stroke: #0000ff; stroke-linejoin: miter"/>
     <use xlink:href="#m812a0af104" x="497.915773" y="433.093367" style="fill: #0000ff; stroke: #0000ff; stroke-linejoin: miter"/>
     <use xlink:href="#m812a0af104" x="505.162526" y="430.747041" style="fill: #0000ff; stroke: #0000ff; stroke-linejoin: miter"/>
     <use xlink:href="#m812a0af104" x="512.409279" y="426.696022" style="fill: #0000ff; stroke: #0000ff; stroke-linejoin: miter"/>
     <use xlink:href="#m812a0af104" x="519.656033" y="420.085288" style="fill: #0000ff; stroke: #0000ff; stroke-linejoin: miter"/>
     <use xlink:href="#m812a0af104" x="526.902786" y="409.656489" style="fill: #0000ff; stroke: #0000ff; stroke-linejoin: miter"/>
     <use xlink:href="#m812a0af104" x="534.149539" y="393.998522" style="fill: #0000ff; stroke: #0000ff; stroke-linejoin: miter"/>
     <use xlink:href="#m812a0af104" x="541.396292" y="371.517393" style="fill: #0000ff; stroke: #0000ff; stroke-linejoin: miter"/>
     <use xlink:href="#m812a0af104" x="548.643046" y="340.608983" style="fill: #0000ff; stroke: #0000ff; stroke-linejoin: miter"/>
     <use xlink:href="#m812a0af104" x="555.889799" y="300.181049" style="fill: #0000ff; stroke: #0000ff; stroke-linejoin: miter"/>
     <use xlink:href="#m812a0af104" x="563.136552" y="250.428275" style="fill: #0000ff; stroke: #0000ff; stroke-linejoin: miter"/>
     <use xlink:href="#m812a0af104" x="570.383305" y="193.697306" style="fill: #0000ff; stroke: #0000ff; stroke-linejoin: miter"/>
     <use xlink:href="#m812a0af104" x="577.630059" y="135.031104" style="fill: #0000ff; stroke: #0000ff; stroke-linejoin: miter"/>
     <use xlink:href="#m812a0af104" x="584.876812" y="81.970453" style="fill: #0000ff; stroke: #0000ff; stroke-linejoin: miter"/>
     <use xlink:href="#m812a0af104" x="592.123565" y="43.507046" style="fill: #0000ff; stroke: #0000ff; stroke-linejoin: miter"/>
     <use xlink:href="#m812a0af104" x="599.370318" y="26.679382" style="fill: #0000ff; stroke: #0000ff; stroke-linejoin: miter"/>
    </g>
   </g>
   <g id="line2d_13">
    <path d="M 92.097591 435.700192 
L 99.344344 435.700192 
L 106.591098 435.700192 
L 113.837851 435.700192 
L 121.084604 435.700192 
L 128.331357 435.700192 
L 135.578111 435.700192 
L 142.824864 435.700192 
L 150.071617 435.700192 
L 157.31837 435.700192 
L 164.565124 435.700192 
L 171.811877 435.700192 
L 179.05863 435.700192 
L 186.305383 435.700192 
L 193.552137 435.700192 
L 200.79889 435.700192 
L 208.045643 435.700192 
L 215.292396 435.700192 
L 222.53915 435.700192 
L 229.785903 435.700192 
L 237.032656 435.700192 
L 244.279409 435.700192 
L 251.526162 435.700192 
L 258.772916 435.700192 
L 266.019669 435.700192 
L 273.266422 435.700192 
L 280.513175 435.700192 
L 287.759929 435.700192 
L 295.006682 435.700192 
L 302.253435 435.700192 
L 309.500188 435.700192 
L 316.746942 435.700192 
L 323.993695 435.700192 
L 331.240448 435.700192 
L 338.487201 435.700192 
L 345.733955 435.700192 
L 352.980708 435.700192 
L 360.227461 435.700192 
L 367.474214 435.700192 
L 374.720968 435.700192 
L 381.967721 435.700192 
L 389.214474 435.700192 
L 396.461227 435.700192 
L 403.707981 435.700192 
L 410.954734 435.700192 
L 418.201487 435.700192 
L 425.44824 435.700192 
L 432.694994 435.700192 
L 439.941747 435.700192 
L 447.1885 435.700192 
L 454.435253 435.700192 
L 461.682007 435.700192 
L 468.92876 435.700192 
L 476.175513 435.700192 
L 483.422266 435.700192 
L 490.66902 435.700192 
L 497.915773 435.700192 
L 505.162526 435.700192 
L 512.409279 435.700192 
L 519.656033 435.700192 
L 526.902786 435.700192 
L 534.149539 435.700192 
L 541.396292 435.700192 
L 548.643046 435.700192 
L 555.889799 435.700192 
L 563.136552 435.700192 
L 570.383305 435.700192 
L 577.630059 435.700192 
L 584.876812 435.700192 
L 592.123565 435.700192 
L 599.370318 435.700192 
" clip-path="url(#p7ca36b0006)" style="fill: none; stroke-dasharray: 5.55,2.4; stroke-dashoffset: 0; stroke: #ffa500; stroke-width: 1.5"/>
   </g>
   <g id="line2d_14">
    <path d="M 92.097591 435.700192 
L 99.344344 435.700192 
L 106.591098 435.700192 
L 113.837851 435.700192 
L 121.084604 435.700192 
L 128.331357 435.700192 
L 135.578111 435.700192 
L 142.824864 435.700192 
L 150.071617 435.700192 
L 157.31837 435.700192 
L 164.565124 435.700192 
L 171.811877 435.700192 
L 179.05863 435.700192 
L 186.305383 435.700192 
L 193.552137 435.700192 
L 200.79889 435.700192 
L 208.045643 435.700192 
L 215.292396 435.700192 
L 222.53915 435.700192 
L 229.785903 435.700192 
L 237.032656 435.700192 
L 244.279409 435.700192 
L 251.526162 435.700192 
L 258.772916 435.700192 
L 266.019669 435.700192 
L 273.266422 435.700192 
L 280.513175 435.700192 
L 287.759929 435.700192 
L 295.006682 435.700192 
L 302.253435 435.700192 
L 309.500188 435.700192 
L 316.746942 435.700192 
L 323.993695 435.700192 
L 331.240448 435.700192 
L 338.487201 435.700192 
L 345.733955 435.700192 
L 352.980708 435.700192 
L 360.227461 435.700192 
L 367.474214 435.700192 
L 374.720968 435.700192 
L 381.967721 435.700192 
L 389.214474 435.700192 
L 396.461227 435.700192 
L 403.707981 435.700191 
L 410.954734 435.700187 
L 418.201487 435.700166 
L 425.44824 435.700076 
L 432.694994 435.699729 
L 439.941747 435.698532 
L 447.1885 435.69476 
L 454.435253 435.683943 
L 461.682007 435.655346 
L 468.92876 435.585341 
L 476.175513 435.425709 
L 483.422266 435.084895 
L 490.66902 434.400116 
L 497.915773 433.093251 
L 505.162526 430.746911 
L 512.409279 426.695877 
L 519.656033 420.085125 
L 526.902786 409.656304 
L 534.149539 393.998312 
L 541.396292 371.517154 
L 548.643046 340.608711 
L 555.889799 300.180739 
L 563.136552 250.427926 
L 570.383305 193.696918 
L 577.630059 135.030679 
L 584.876812 81.97 
L 592.123565 43.506579 
L 599.370318 26.678914 
" clip-path="url(#p7ca36b0006)" style="fill: none; stroke-dasharray: 5.55,2.4; stroke-dashoffset: 0; stroke: #000000; stroke-width: 1.5"/>
   </g>
   <g id="patch_3">
    <path d="M 66.733955 461.789603 
L 66.733955 18.269603 
" style="fill: none; stroke: #000000; stroke-width: 0.8; stroke-linejoin: miter; stroke-linecap: square"/>
   </g>
   <g id="patch_4">
    <path d="M 624.733955 461.789603 
L 624.733955 18.269603 
" style="fill: none; stroke: #000000; stroke-width: 0.8; stroke-linejoin: miter; stroke-linecap: square"/>
   </g>
   <g id="patch_5">
    <path d="M 66.733955 461.789603 
L 624.733955 461.789603 
" style="fill: none; stroke: #000000; stroke-width: 0.8; stroke-linejoin: miter; stroke-linecap: square"/>
   </g>
   <g id="patch_6">
    <path d="M 66.733955 18.269603 
L 624.733955 18.269603 
" style="fill: none; stroke: #000000; stroke-width: 0.8; stroke-linejoin: miter; stroke-linecap: square"/>
   </g>
   <g id="legend_1">
    <g id="patch_7">
     <path d="M 89.133955 237.525636 
L 304.806813 237.525636 
Q 311.206813 237.525636 311.206813 231.125636 
L 311.206813 40.669603 
Q 311.206813 34.269603 304.806813 34.269603 
L 89.133955 34.269603 
Q 82.733955 34.269603 82.733955 40.669603 
L 82.733955 231.125636 
Q 82.733955 237.525636 89.133955 237.525636 
z
" style="fill: #ffffff; opacity: 0.8; stroke: #cccccc; stroke-linejoin: miter"/>
    </g>
    <g id="line2d_15">
     <path d="M 95.533955 59.751239 
L 127.533955 59.751239 
L 159.533955 59.751239 
" style="fill: none; stroke: #ff0000; stroke-width: 1.5; stroke-linecap: square"/>
    </g>
    <g id="text_12">
     <!-- $N({\cal W}_e)$ -->
     <g transform="translate(185.133955 70.951239) scale(0.32 -0.32)">
      <defs>
       <path id="CMMI12-4e" d="M 4736 3682 
C 4806 3956 4909 4147 5395 4166 
C 5414 4166 5491 4172 5491 4281 
C 5491 4352 5434 4352 5408 4352 
C 5280 4352 4954 4339 4826 4339 
L 4518 4339 
C 4429 4339 4314 4352 4224 4352 
C 4186 4352 4109 4352 4109 4230 
C 4109 4166 4160 4166 4205 4166 
C 4589 4153 4614 4007 4614 3892 
C 4614 3835 4608 3816 4589 3726 
L 3866 854 
L 2496 4243 
C 2451 4345 2445 4352 2304 4352 
L 1523 4352 
C 1395 4352 1338 4352 1338 4230 
C 1338 4166 1382 4166 1504 4166 
C 1536 4166 1914 4166 1914 4109 
C 1914 4096 1901 4045 1894 4026 
L 1043 650 
C 966 338 813 204 390 185 
C 358 185 294 179 294 64 
C 294 0 358 0 378 0 
C 506 0 832 12 960 12 
L 1267 12 
C 1357 12 1466 0 1555 0 
C 1600 0 1670 0 1670 121 
C 1670 179 1606 185 1581 185 
C 1370 191 1165 230 1165 459 
C 1165 510 1178 567 1190 618 
L 2054 4026 
C 2093 3962 2093 3949 2118 3892 
L 3642 115 
C 3674 38 3686 0 3744 0 
C 3808 0 3814 19 3840 128 
L 4736 3682 
z
" transform="scale(0.015625)"/>
       <path id="CMR17-28" d="M 1958 -1562 
C 1958 -1556 1958 -1543 1939 -1524 
C 1645 -1223 858 -403 858 1596 
C 858 3595 1632 4408 1946 4729 
C 1946 4735 1958 4748 1958 4767 
C 1958 4787 1939 4800 1914 4800 
C 1843 4800 1299 4325 986 3620 
C 666 2909 576 2218 576 1603 
C 576 1141 621 360 1005 -467 
C 1312 -1133 1837 -1600 1914 -1600 
C 1946 -1600 1958 -1588 1958 -1562 
z
" transform="scale(0.015625)"/>
       <path id="CMSY10-57" d="M 1542 841 
C 1626 1360 1683 1892 1683 2431 
C 1683 2615 1683 3324 1466 3780 
C 1216 4281 870 4352 659 4352 
C 442 4352 218 4173 218 4084 
C 218 4040 250 4040 333 4034 
C 608 4008 883 3875 1056 3362 
C 1190 2963 1210 2482 1210 2209 
C 1210 1253 986 150 947 5 
C 928 -78 922 -103 922 -161 
C 922 -186 922 -263 966 -263 
C 998 -263 1005 -257 1107 -135 
C 1818 701 2528 1664 3226 2868 
C 3475 3305 3642 3634 3667 3679 
C 3859 3090 4077 2215 4198 1183 
C 4237 847 4269 461 4275 125 
C 4275 100 4282 -193 4288 -212 
C 4288 -237 4307 -263 4326 -263 
C 4358 -263 4365 -257 4467 -141 
C 5261 739 6630 2583 6630 3679 
C 6630 4186 6355 4352 6157 4352 
C 5984 4352 5888 3964 5888 3869 
C 5888 3780 5920 3774 5965 3768 
C 6054 3755 6349 3710 6349 3292 
C 6349 2570 4787 619 4742 619 
C 4736 619 4736 625 4730 771 
C 4659 2133 4288 3584 4026 4281 
C 4006 4326 4000 4352 3936 4352 
C 3814 4352 3539 4192 3539 4078 
C 3539 4053 3565 3996 3578 3964 
C 3187 3235 2611 2165 1549 841 
L 1542 841 
z
" transform="scale(0.015625)"/>
       <path id="CMMI12-65" d="M 1146 1472 
C 1318 1472 1754 1484 2061 1600 
C 2547 1786 2592 2160 2592 2275 
C 2592 2559 2349 2816 1926 2816 
C 1254 2816 288 2205 288 1066 
C 288 400 672 -64 1254 -64 
C 2125 -64 2675 609 2675 691 
C 2675 729 2637 761 2611 761 
C 2592 761 2586 755 2528 698 
C 2118 159 1510 64 1267 64 
C 902 64 710 349 710 818 
C 710 907 710 1066 806 1472 
L 1146 1472 
z
M 838 1600 
C 1114 2591 1722 2687 1926 2687 
C 2208 2687 2400 2520 2400 2275 
C 2400 1600 1376 1600 1107 1600 
L 838 1600 
z
" transform="scale(0.015625)"/>
       <path id="CMR17-29" d="M 1683 1596 
C 1683 2057 1638 2839 1254 3665 
C 947 4332 422 4800 346 4800 
C 326 4800 301 4793 301 4761 
C 301 4748 307 4742 314 4729 
C 621 4408 1402 3595 1402 1603 
C 1402 -396 627 -1210 314 -1530 
C 307 -1543 301 -1549 301 -1562 
C 301 -1594 326 -1600 346 -1600 
C 416 -1600 960 -1127 1274 -422 
C 1594 289 1683 981 1683 1596 
z
" transform="scale(0.015625)"/>
      </defs>
      <use xlink:href="#CMMI12-4e" transform="scale(0.996264)"/>
      <use xlink:href="#CMR17-28" transform="translate(88.521773 0) scale(0.996264)"/>
      <use xlink:href="#CMSY10-57" transform="translate(123.80254 0) scale(0.996264)"/>
      <use xlink:href="#CMMI12-65" transform="translate(222.211841 -14.943915) scale(0.697382)"/>
      <use xlink:href="#CMR17-29" transform="translate(254.358229 0) scale(0.996264)"/>
     </g>
    </g>
    <g id="line2d_16">
     <path d="M 95.533955 107.576322 
L 127.533955 107.576322 
L 159.533955 107.576322 
" style="fill: none; stroke-dasharray: 5.55,2.4; stroke-dashoffset: 0; stroke: #0000ff; stroke-width: 1.5"/>
     <g>
      <use xlink:href="#m812a0af104" x="127.533955" y="107.576322" style="fill: #0000ff; stroke: #0000ff; stroke-linejoin: miter"/>
     </g>
    </g>
    <g id="text_13">
     <!-- $N({\cal W}_g$) -->
     <g transform="translate(185.133955 118.776322) scale(0.32 -0.32)">
      <defs>
       <path id="CMMI12-67" d="M 2163 811 
C 2138 708 2125 683 2042 587 
C 1779 249 1510 128 1312 128 
C 1101 128 902 293 902 734 
C 902 1072 1094 1787 1235 2075 
C 1421 2432 1709 2687 1978 2687 
C 2400 2687 2483 2164 2483 2126 
L 2464 2036 
L 2163 811 
z
M 2560 2394 
C 2477 2579 2298 2816 1978 2816 
C 1280 2816 486 1941 486 989 
C 486 325 890 0 1299 0 
C 1638 0 1939 268 2054 396 
L 1914 -176 
C 1824 -520 1786 -677 1555 -896 
C 1293 -1152 1050 -1152 909 -1152 
C 717 -1152 557 -1140 397 -1090 
C 602 -1034 653 -858 653 -789 
C 653 -689 576 -589 435 -589 
C 282 -589 115 -714 115 -921 
C 115 -1178 378 -1280 922 -1280 
C 1747 -1280 2176 -758 2259 -420 
L 2970 2426 
C 2989 2502 2989 2515 2989 2528 
C 2989 2617 2918 2688 2822 2688 
C 2669 2688 2579 2560 2560 2388 
L 2560 2394 
z
" transform="scale(0.015625)"/>
      </defs>
      <use xlink:href="#CMMI12-4e" transform="scale(0.996264)"/>
      <use xlink:href="#CMR17-28" transform="translate(88.521773 0) scale(0.996264)"/>
      <use xlink:href="#CMSY10-57" transform="translate(123.80254 0) scale(0.996264)"/>
      <use xlink:href="#CMMI12-67" transform="translate(222.211841 -14.943915) scale(0.697382)"/>
      <use xlink:href="#CMR17-29" transform="translate(257.909655 0) scale(0.996264)"/>
     </g>
    </g>
    <g id="line2d_17">
     <path d="M 95.533955 156.579255 
L 127.533955 156.579255 
L 159.533955 156.579255 
" style="fill: none; stroke-dasharray: 5.55,2.4; stroke-dashoffset: 0; stroke: #ffa500; stroke-width: 1.5"/>
    </g>
    <g id="text_14">
     <!-- $N({\cal W}_{em})$ -->
     <g transform="translate(185.133955 167.779255) scale(0.32 -0.32)">
      <defs>
       <path id="CMMI12-6d" d="M 1318 1870 
C 1331 1909 1491 2228 1728 2432 
C 1894 2585 2112 2687 2362 2687 
C 2618 2687 2707 2496 2707 2241 
C 2707 2202 2707 2075 2630 1775 
L 2470 1117 
C 2419 925 2298 453 2285 383 
C 2259 287 2221 121 2221 95 
C 2221 6 2291 -64 2387 -64 
C 2579 -64 2611 83 2669 313 
L 3053 1838 
C 3066 1890 3398 2687 4102 2687 
C 4358 2687 4448 2496 4448 2241 
C 4448 1883 4198 1187 4058 804 
C 4000 651 3968 568 3968 453 
C 3968 166 4166 -64 4474 -64 
C 5069 -64 5293 874 5293 913 
C 5293 945 5267 970 5229 970 
C 5171 970 5165 951 5133 842 
C 4986 332 4749 64 4493 64 
C 4429 64 4326 70 4326 274 
C 4326 440 4403 645 4429 715 
C 4544 1021 4832 1775 4832 2145 
C 4832 2528 4608 2816 4122 2816 
C 3693 2816 3347 2573 3091 2196 
C 3072 2541 2861 2816 2381 2816 
C 1811 2816 1510 2413 1395 2253 
C 1376 2617 1114 2816 832 2816 
C 646 2816 499 2726 378 2483 
C 262 2253 173 1864 173 1838 
C 173 1813 198 1781 243 1781 
C 294 1781 301 1787 339 1934 
C 435 2311 557 2687 813 2687 
C 960 2687 1011 2585 1011 2394 
C 1011 2253 947 2004 902 1807 
L 723 1117 
C 698 996 627 708 595 593 
C 550 427 480 127 480 95 
C 480 6 550 -64 646 -64 
C 723 -64 813 -26 864 70 
C 877 102 934 325 966 453 
L 1107 1028 
L 1318 1870 
z
" transform="scale(0.015625)"/>
      </defs>
      <use xlink:href="#CMMI12-4e" transform="scale(0.996264)"/>
      <use xlink:href="#CMR17-28" transform="translate(88.521773 0) scale(0.996264)"/>
      <use xlink:href="#CMSY10-57" transform="translate(123.80254 0) scale(0.996264)"/>
      <use xlink:href="#CMMI12-65" transform="translate(222.211841 -14.943915) scale(0.697382)"/>
      <use xlink:href="#CMMI12-6d" transform="translate(253.860097 -14.943915) scale(0.697382)"/>
      <use xlink:href="#CMR17-29" transform="translate(314.08702 0) scale(0.996264)"/>
     </g>
    </g>
    <g id="line2d_18">
     <path d="M 95.533955 204.404338 
L 127.533955 204.404338 
L 159.533955 204.404338 
" style="fill: none; stroke-dasharray: 5.55,2.4; stroke-dashoffset: 0; stroke: #000000; stroke-width: 1.5"/>
    </g>
    <g id="text_15">
     <!-- $N({\cal W}_{gm}$) -->
     <g transform="translate(185.133955 215.604338) scale(0.32 -0.32)">
      <use xlink:href="#CMMI12-4e" transform="scale(0.996264)"/>
      <use xlink:href="#CMR17-28" transform="translate(88.521773 0) scale(0.996264)"/>
      <use xlink:href="#CMSY10-57" transform="translate(123.80254 0) scale(0.996264)"/>
      <use xlink:href="#CMMI12-67" transform="translate(222.211841 -14.943915) scale(0.697382)"/>
      <use xlink:href="#CMMI12-6d" transform="translate(257.411523 -14.943915) scale(0.697382)"/>
      <use xlink:href="#CMR17-29" transform="translate(317.638446 0) scale(0.996264)"/>
     </g>
    </g>
   </g>
  </g>
 </g>
 <defs>
  <clipPath id="p7ca36b0006">
   <rect x="66.733955" y="18.269603" width="558" height="443.52"/>
  </clipPath>
 </defs>
</svg>
